<svg width="97" height="20" viewBox="0 0 97 20" fill="none" xmlns="http://www.w3.org/2000/svg">
<path d="M5.2199 9.78883L3.05667 11.9526L0.874634 9.78883L3.05667 7.60622L5.2199 9.78883ZM10.5057 4.50166L14.2302 8.22714L16.4123 6.04454L10.5057 0.155273L4.59915 6.06335L6.78119 8.24595L10.5057 4.50166ZM17.9547 7.60622L15.7915 9.78883L17.9735 11.9714L20.1556 9.78883L17.9547 7.60622ZM10.5057 15.076L6.78119 11.3317L4.59915 13.5143L10.5057 19.4224L16.4123 13.5143L14.2302 11.3317L10.5057 15.076ZM10.5057 11.9526L12.6877 9.77001L10.5057 7.60622L8.32366 9.78883L10.5057 11.9526ZM33.4547 12.1784V12.1408C33.4547 10.7296 32.7023 10.0146 31.4796 9.54423C32.232 9.13028 32.8716 8.45292 32.8716 7.26755V7.22991C32.8716 5.57415 31.536 4.50166 29.3916 4.50166H24.482V15.0572H29.5045C31.8934 15.076 33.4547 14.0976 33.4547 12.1784ZM30.5579 7.66267C30.5579 8.45292 29.9183 8.77279 28.8837 8.77279H26.7393V6.53374H29.0342C30.0124 6.53374 30.5579 6.92887 30.5579 7.62504V7.66267ZM31.141 11.8774C31.141 12.6676 30.5203 13.0251 29.5045 13.0251H26.7393V10.7108H29.4292C30.6143 10.7108 31.141 11.1435 31.141 11.8774ZM38.3267 15.076V4.50166H35.9942V15.0572H38.3267V15.076ZM50.817 15.076V4.50166H48.5221V11.0118L43.5749 4.50166H41.4305V15.0572H43.7254V8.35885L48.8419 15.076H50.817ZM63.6835 15.076L59.1501 4.44522H57.0057L52.4723 15.076H54.8613L55.8206 12.7052H60.2788L61.2381 15.076H63.6835ZM59.4511 10.6543H56.6483L58.0591 7.22991L59.4511 10.6543ZM74.763 15.076V4.50166H72.4681V11.0118L67.5209 4.50166H65.3765V15.0572H67.6714V8.35885L72.7879 15.076H74.763ZM86.7454 13.3638L85.2593 11.8774C84.4317 12.63 83.6981 13.1192 82.4754 13.1192C80.6695 13.1192 79.4092 11.6139 79.4092 9.80764V9.7512C79.4092 7.9449 80.6883 6.45848 82.4754 6.45848C83.5288 6.45848 84.3564 6.91005 85.1841 7.64386L86.6701 5.93164C85.692 4.97205 84.5069 4.29469 82.513 4.29469C79.2775 4.29469 77.0015 6.75953 77.0015 9.7512V9.78883C77.0015 12.8181 79.3152 15.2265 82.4189 15.2265C84.4505 15.2453 85.6544 14.5303 86.7454 13.3638ZM96.6586 15.076V13.0063H90.9214V10.7861H95.9062V8.71634H90.9214V6.57137H96.5834V4.50166H88.6265V15.0572L96.6586 15.076Z" fill="#F0B90B"/>
</svg>
