<svg width="31" height="31" viewBox="0 0 31 31" fill="none" xmlns="http://www.w3.org/2000/svg">
<path d="M7.56258 15.4697L4.15814 18.8742L0.745117 15.4697L4.14956 12.0653L7.56258 15.4697ZM15.8379 7.19442L21.6777 13.0343L25.0822 9.62984L15.8379 0.376953L6.58499 9.62984L9.98943 13.0343L15.8379 7.19442ZM27.5176 12.0653L24.1132 15.4697L27.5176 18.8742L30.9221 15.4697L27.5176 12.0653ZM15.8379 23.745L9.99801 17.9051L6.59356 21.3096L15.8379 30.5625L25.0822 21.3096L21.6777 17.9051L15.8379 23.745ZM15.8379 18.8742L19.2423 15.4697L15.8379 12.0653L12.4249 15.4697L15.8379 18.8742Z" fill="black"/>
</svg>
