<svg width="96" height="26" viewBox="0 0 96 26" fill="none" xmlns="http://www.w3.org/2000/svg">
<g opacity="0.8">
<path opacity="0.8" d="M22.2012 4.27449L22.338 5.07552C22.338 5.1213 22.4747 5.99102 22.4747 7.34129C22.4747 8.62293 22.3608 10.3852 21.882 12.3077C21.4261 14.1387 20.6054 16.3358 19.1235 18.4871C17.6417 20.6385 15.4759 22.744 12.3527 24.4377L11.9651 24.6436L11.5776 24.4377C8.4315 22.744 6.28853 20.6156 4.80671 18.4871C3.32487 16.3358 2.50416 14.1615 2.04821 12.3077C1.56947 10.3852 1.45548 8.62293 1.45548 7.34129C1.45548 5.99102 1.59227 5.1213 1.59227 5.07552L1.72905 4.27449C1.77465 3.99985 1.59227 3.7481 1.3187 3.70232C1.04513 3.65655 0.794353 3.83964 0.74876 4.11428L0.611976 4.91532C0.589177 5.00687 0.452393 5.92232 0.452393 7.34129C0.452393 8.69162 0.589177 10.5226 1.09072 12.5595C1.52388 14.5048 2.39018 16.8164 3.96321 19.0822C5.53623 21.3479 7.81597 23.5909 11.0988 25.3531L11.7144 25.6964C11.8739 25.788 12.0335 25.788 12.1931 25.6964L12.8086 25.3531C16.0915 23.5909 18.3712 21.3479 19.9442 19.0822C21.5172 16.8164 22.3836 14.5048 22.8623 12.5824C23.3639 10.5455 23.5007 8.73738 23.5007 7.36417C23.5007 5.9452 23.3639 5.02975 23.3411 4.9382L23.2043 4.13717C23.1587 3.86253 22.9079 3.67943 22.6343 3.72521C22.338 3.7481 22.1556 3.99985 22.2012 4.27449Z" fill="#171921" stroke="#171921" stroke-width="0.319555" stroke-miterlimit="10"/>
<path opacity="0.8" d="M4.46472 3.72496L11.9651 1.43629L19.625 3.79362C19.8986 3.88517 20.1722 3.72496 20.2634 3.45032C20.3546 3.17568 20.195 2.90103 19.9214 2.80949L12.1019 0.429277C12.0107 0.406387 11.8967 0.406387 11.8055 0.429277L4.16835 2.76372C3.89478 2.85526 3.758 3.1299 3.82639 3.40455C3.91758 3.6563 4.19115 3.8165 4.46472 3.72496Z" fill="#171921" stroke="#171921" stroke-width="0.319555" stroke-miterlimit="10"/>
<path opacity="0.8" d="M0.771622 4.43453L11.5093 25.4674C11.6004 25.6276 11.76 25.742 11.9424 25.742C12.1248 25.742 12.3071 25.6505 12.3984 25.4674L18.9412 13.1772V13.1543L23.1588 4.41164C23.2727 4.15989 23.1815 3.86236 22.9308 3.74793C22.68 3.6335 22.3836 3.72504 22.2697 3.9768L18.0521 12.7195L11.9652 24.1629L1.66072 3.9768C1.52394 3.72504 1.22757 3.6335 0.976798 3.74793C0.748823 3.88525 0.634838 4.18278 0.771622 4.43453Z" fill="#171921" stroke="#171921" stroke-width="0.319555" stroke-miterlimit="10"/>
<path opacity="0.8" d="M5.90096 13.7951H17.8469C18.1204 13.7951 18.3484 13.5662 18.3484 13.2916C18.3484 13.0169 18.1204 12.7881 17.8469 12.7881H5.90096C5.62739 12.7881 5.39941 13.0169 5.39941 13.2916C5.39941 13.5662 5.62739 13.7951 5.90096 13.7951Z" fill="#171921" stroke="#171921" stroke-width="0.319555" stroke-miterlimit="10"/>
<path opacity="0.8" d="M36.5516 5.88461C36.5516 6.47291 36.4454 6.98129 36.2329 7.40975C36.0205 7.83828 35.7291 8.16871 35.3587 8.40111C34.9883 8.63351 34.5653 8.74977 34.0896 8.74977C33.6139 8.74977 33.1908 8.63351 32.8204 8.40111C32.45 8.16871 32.1586 7.83828 31.9462 7.40975C31.7337 6.98129 31.6276 6.47291 31.6276 5.88461C31.6276 5.29636 31.7337 4.78797 31.9462 4.35948C32.1586 3.93099 32.45 3.60054 32.8204 3.36814C33.1908 3.13573 33.6139 3.01953 34.0896 3.01953C34.5653 3.01953 34.9883 3.13573 35.3587 3.36814C35.7291 3.60054 36.0205 3.93099 36.2329 4.35948C36.4454 4.78797 36.5516 5.29636 36.5516 5.88461ZM35.8979 5.88461C35.8979 5.40167 35.8172 4.99406 35.6556 4.66179C35.4958 4.32952 35.2788 4.07806 35.0047 3.90738C34.7323 3.73671 34.4273 3.65138 34.0896 3.65138C33.7519 3.65138 33.4459 3.73671 33.1717 3.90738C32.8994 4.07806 32.6824 4.32952 32.5208 4.66179C32.361 4.99406 32.2812 5.40167 32.2812 5.88461C32.2812 6.36758 32.361 6.77521 32.5208 7.10745C32.6824 7.43976 32.8994 7.69123 33.1717 7.86188C33.4459 8.03253 33.7519 8.11788 34.0896 8.11788C34.4273 8.11788 34.7323 8.03253 35.0047 7.86188C35.2788 7.69123 35.4958 7.43976 35.6556 7.10745C35.8172 6.77521 35.8979 6.36758 35.8979 5.88461ZM43.0306 3.09579V8.67347H42.3769L39.3375 4.29412H39.283V8.67347H38.6076V3.09579H39.2613L42.3116 7.48605H42.366V3.09579H43.0306ZM48.3797 8.67347V3.09579H50.3297C50.7183 3.09579 51.0388 3.16297 51.2911 3.29732C51.5435 3.42987 51.7314 3.60871 51.8549 3.83385C51.9783 4.05718 52.0401 4.30501 52.0401 4.57736C52.0401 4.81703 51.9974 5.01494 51.912 5.17108C51.8286 5.32723 51.7178 5.45069 51.5798 5.54148C51.4436 5.63226 51.2957 5.69944 51.1359 5.74301V5.79748C51.3065 5.80837 51.4781 5.86831 51.6506 5.9772C51.8231 6.08616 51.9675 6.24232 52.0837 6.44569C52.1999 6.64905 52.2579 6.89775 52.2579 7.1919C52.2579 7.47151 52.1944 7.72298 52.0673 7.94633C51.9402 8.16961 51.7396 8.34666 51.4654 8.47741C51.1912 8.60809 50.8345 8.67347 50.3951 8.67347H48.3797ZM49.0551 8.0743H50.3951C50.8363 8.0743 51.1495 7.989 51.3347 7.8183C51.5217 7.64584 51.6152 7.43704 51.6152 7.1919C51.6152 7.00308 51.5671 6.82875 51.4708 6.66897C51.3746 6.50738 51.2375 6.3785 51.0596 6.28228C50.8817 6.18419 50.6711 6.13518 50.4278 6.13518H49.0551V8.0743ZM49.0551 5.54692H50.3079C50.5113 5.54692 50.6947 5.50698 50.8581 5.42709C51.0233 5.3472 51.1541 5.23463 51.2503 5.08938C51.3483 4.94412 51.3973 4.77345 51.3973 4.57736C51.3973 4.33225 51.312 4.12435 51.1413 3.95368C50.9707 3.78119 50.7001 3.69495 50.3297 3.69495H49.0551V5.54692ZM58.9943 5.88461C58.9943 6.47291 58.888 6.98129 58.6756 7.40975C58.4632 7.83828 58.1717 8.16871 57.8014 8.40111C57.431 8.63351 57.0079 8.74977 56.5322 8.74977C56.0565 8.74977 55.6335 8.63351 55.2631 8.40111C54.8927 8.16871 54.6013 7.83828 54.3889 7.40975C54.1764 6.98129 54.0702 6.47291 54.0702 5.88461C54.0702 5.29636 54.1764 4.78797 54.3889 4.35948C54.6013 3.93099 54.8927 3.60054 55.2631 3.36814C55.6335 3.13573 56.0565 3.01953 56.5322 3.01953C57.0079 3.01953 57.431 3.13573 57.8014 3.36814C58.1717 3.60054 58.4632 3.93099 58.6756 4.35948C58.888 4.78797 58.9943 5.29636 58.9943 5.88461ZM58.3406 5.88461C58.3406 5.40167 58.2598 4.99406 58.0982 4.66179C57.9384 4.32952 57.7215 4.07806 57.4473 3.90738C57.175 3.73671 56.8699 3.65138 56.5322 3.65138C56.1945 3.65138 55.8886 3.73671 55.6144 3.90738C55.3421 4.07806 55.1251 4.32952 54.9635 4.66179C54.8038 4.99406 54.7238 5.40167 54.7238 5.88461C54.7238 6.36758 54.8038 6.77521 54.9635 7.10745C55.1251 7.43976 55.3421 7.69123 55.6144 7.86188C55.8886 8.03253 56.1945 8.11788 56.5322 8.11788C56.8699 8.11788 57.175 8.03253 57.4473 7.86188C57.7215 7.69123 57.9384 7.43976 58.0982 7.10745C58.2598 6.77521 58.3406 6.36758 58.3406 5.88461ZM61.017 8.67347H60.309L62.3571 3.09579H63.0543L65.1019 8.67347H64.3938L62.7271 3.9782H62.6837L61.017 8.67347ZM61.2784 6.4947H64.1324V7.09387H61.2784V6.4947ZM66.891 8.67347V3.09579H68.7762C69.2114 3.09579 69.5694 3.17023 69.8488 3.31911C70.1283 3.46618 70.3354 3.66863 70.47 3.92645C70.604 4.18427 70.6716 4.4775 70.6716 4.80613C70.6716 5.13477 70.604 5.42618 70.47 5.68037C70.3354 5.93459 70.1295 6.13427 69.8519 6.27957C69.5736 6.42299 69.2187 6.4947 68.7871 6.4947H67.2617V5.88461H68.7647C69.0629 5.88461 69.3026 5.84105 69.4843 5.75391C69.6672 5.66675 69.8 5.54329 69.8814 5.38351C69.9654 5.22192 70.007 5.02946 70.007 4.80613C70.007 4.58281 69.9654 4.38763 69.8814 4.22059C69.7981 4.05354 69.6647 3.92464 69.4812 3.83385C69.2977 3.74125 69.0557 3.69495 68.7539 3.69495H67.5665V8.67347H66.891ZM69.5169 6.16789L70.8895 8.67347H70.1048L68.7539 6.16789H69.5169ZM74.4383 8.67347H72.7173V3.09579H74.515C75.0558 3.09579 75.5188 3.20745 75.9039 3.43078C76.2884 3.65229 76.5836 3.97093 76.7889 4.38672C76.9941 4.80069 77.0967 5.29636 77.0967 5.87374C77.0967 6.45474 76.9929 6.95498 76.7858 7.37438C76.5794 7.79198 76.2776 8.11335 75.8822 8.33851C75.4862 8.56179 75.0051 8.67347 74.4383 8.67347ZM73.3928 8.0743H74.3948C74.856 8.0743 75.2381 7.98532 75.5417 7.80743C75.8448 7.62948 76.0705 7.37619 76.2196 7.04757C76.3687 6.71895 76.443 6.32768 76.443 5.87374C76.443 5.42346 76.3693 5.03582 76.2226 4.71081C76.0754 4.384 75.8556 4.13343 75.5635 3.95913C75.2707 3.78301 74.9067 3.69495 74.4709 3.69495H73.3928V8.0743Z" fill="#171921"/>
<path d="M83.3618 7.77611C84.3619 7.77611 85.1727 6.96534 85.1727 5.96521C85.1727 4.96507 84.3619 4.1543 83.3618 4.1543C82.3617 4.1543 81.5509 4.96507 81.5509 5.96521C81.5509 6.96534 82.3617 7.77611 83.3618 7.77611Z" fill="#40B884"/>
<path d="M83.3618 7.77611C84.3619 7.77611 85.1727 6.96534 85.1727 5.96521C85.1727 4.96507 84.3619 4.1543 83.3618 4.1543C82.3617 4.1543 81.5509 4.96507 81.5509 5.96521C81.5509 6.96534 82.3617 7.77611 83.3618 7.77611Z" fill="#40B884"/>
<path opacity="0.8" d="M38.9729 14.5968H32.4673C32.3529 14.5968 32.2575 14.6352 32.1621 14.7309C32.0858 14.8076 32.0285 14.9224 32.0285 15.0374V20.266C32.0285 20.3809 32.0667 20.4767 32.1621 20.5725C32.2384 20.6491 32.3529 20.7065 32.4673 20.7065H38.9729V21.5875H32.4673C32.1048 21.5875 31.7996 21.4535 31.5516 21.2045C31.3036 20.9555 31.17 20.6491 31.17 20.2852V15.0182C31.17 14.6543 31.3036 14.3479 31.5516 14.0989C31.7996 13.8499 32.1048 13.7158 32.4673 13.7158H38.9729V14.5968Z" fill="#171921" stroke="#171921" stroke-width="0.160451" stroke-miterlimit="10"/>
<path opacity="0.8" d="M51.1828 13.7158V14.5968H44.9252V17.2016H49.9618V18.1018H44.9252V20.7065H51.1828V21.5875H44.0476V13.735H51.1828V13.7158Z" fill="#171921" stroke="#171921" stroke-width="0.160451" stroke-miterlimit="10"/>
<path opacity="0.8" d="M64.0792 15.0182V17.3165C64.0792 17.6804 63.9458 17.9869 63.6978 18.2359C63.4497 18.4849 63.1448 18.6189 62.782 18.6189H61.5802L64.0412 21.5493H62.8774L60.4164 18.6381H57.5547C57.4975 18.6381 57.3448 18.6189 57.135 18.5997V21.5684H56.2574V13.7158H62.782C63.1448 13.7158 63.4497 13.8499 63.6978 14.0989C63.9458 14.3479 64.0792 14.6543 64.0792 15.0182ZM57.5547 17.7378H62.7627C62.8774 17.7378 62.9728 17.6996 63.0494 17.623C63.1255 17.5464 63.1635 17.4506 63.1635 17.3356V15.0374C63.1635 14.9224 63.1255 14.8267 63.0494 14.7309C62.9728 14.6543 62.8774 14.5968 62.7627 14.5968H57.5547C57.4403 14.5968 57.3448 14.6352 57.2495 14.7309C57.1732 14.8076 57.1159 14.9224 57.1159 15.0374V17.3356C57.1159 17.4506 57.1541 17.5464 57.2495 17.623C57.3258 17.6996 57.4403 17.7378 57.5547 17.7378Z" fill="#171921" stroke="#171921" stroke-width="0.160451" stroke-miterlimit="10"/>
<path opacity="0.8" d="M68.7539 13.7158H76.5758V14.5968H73.1031V21.5684H72.226V14.5968H68.7539V13.7158Z" fill="#171921" stroke="#171921" stroke-width="0.160451" stroke-miterlimit="10"/>
<path opacity="0.8" d="M81.3071 21.5684V13.7158H82.1842V21.5684H81.3071Z" fill="#171921" stroke="#171921" stroke-width="0.160451" stroke-miterlimit="10"/>
<path opacity="0.8" d="M93.9364 13.7158H95.0622L91.7995 17.6421L95.0809 21.5684H93.9364L91.0172 18.0826H88.4994V21.5684H87.6024V13.7158H88.4994V17.2016H91.0172L93.9364 13.7158Z" fill="#171921" stroke="#171921" stroke-width="0.160451" stroke-miterlimit="10"/>
</g>
</svg>
