<svg width="36" height="35" viewBox="0 0 36 35" fill="none" xmlns="http://www.w3.org/2000/svg">
<path d="M29.32 26.8586C29.2808 24.8801 29.4147 22.4521 29.2058 20.0369C28.9902 17.5345 27.6451 16.3156 25.1048 16.2446C23.9294 16.2121 22.79 16.3479 21.7257 16.8621C21.5264 16.9591 21.4481 16.9202 21.3501 16.7521C20.6515 15.5171 19.956 14.2821 19.2442 13.0567C19.0842 12.7852 19.2377 12.6817 19.4141 12.5362C20.9714 11.2365 22.7932 10.619 24.8012 10.5414C26.7504 10.4671 28.68 10.6287 30.5085 11.3691C33.1596 12.4457 34.606 14.5117 35.2787 17.1789C35.6638 18.6984 35.8206 20.2535 35.8271 21.8152C35.8435 25.9081 35.8271 30.0012 35.8402 34.0943C35.8402 34.4984 35.765 34.6342 35.3211 34.6278C33.509 34.5986 31.6936 34.5921 29.8815 34.6278C29.369 34.6375 29.3037 34.4694 29.3102 34.0264C29.3331 31.7826 29.32 29.5389 29.32 26.8523V26.8586Z" fill="white"/>
<path d="M11.4735 22.7108C11.4735 18.941 11.48 15.168 11.4637 11.3983C11.4637 10.9844 11.5747 10.8971 11.9731 10.9036C13.8406 10.9262 15.7083 10.923 17.5758 10.9036C17.9153 10.9004 17.9937 10.9877 17.9905 11.3174C17.9806 18.9475 17.9806 26.5807 17.9905 34.2107C17.9905 34.5437 17.9088 34.6278 17.5726 34.6246C15.7049 34.6084 13.8374 34.6052 11.9698 34.6246C11.5682 34.6278 11.4572 34.5405 11.4605 34.13C11.48 30.3247 11.4703 26.5161 11.4703 22.7108H11.4735Z" fill="white"/>
<path d="M8.17577 22.7656C8.17577 26.5548 8.16923 30.3438 8.18556 34.133C8.18556 34.5468 8.07455 34.6342 7.67622 34.6276C5.86415 34.605 4.04881 34.6082 2.23673 34.6276C1.88738 34.6276 1.7829 34.5501 1.7829 34.188C1.79269 26.5742 1.79269 18.9603 1.7829 11.3464C1.7829 10.9843 1.88738 10.9035 2.23673 10.9067C4.04881 10.9229 5.86415 10.9261 7.67622 10.9067C8.07455 10.9002 8.18882 10.9875 8.18882 11.4014C8.16923 15.1905 8.17903 18.9797 8.17903 22.7687L8.17577 22.7656Z" fill="white"/>
<path d="M4.98266 8.13896C7.19159 8.13896 8.98228 6.36579 8.98228 4.17846C8.98228 1.99114 7.19159 0.21796 4.98266 0.21796C2.77372 0.21796 0.983032 1.99114 0.983032 4.17846C0.983032 6.36579 2.77372 8.13896 4.98266 8.13896Z" fill="white"/>
</svg>
