<svg width="91" height="91" viewBox="0 0 91 91" fill="none" xmlns="http://www.w3.org/2000/svg">
<mask id="mask0_42_618" style="mask-type:alpha" maskUnits="userSpaceOnUse" x="0" y="0" width="91" height="91">
<path d="M45.2658 90.8451C70.1173 90.8451 90.2635 70.6999 90.2635 45.8495C90.2635 20.9992 70.1173 0.854004 45.2658 0.854004C20.4142 0.854004 0.268066 20.9992 0.268066 45.8495C0.268066 70.6999 20.4142 90.8451 45.2658 90.8451Z" fill="url(#paint0_linear_42_618)"/>
</mask>
<g mask="url(#mask0_42_618)">
<path d="M35.26 27.3569V18.1719H52.4205V70.0779H42.1669V27.3569H35.26Z" fill="url(#paint1_linear_42_618)"/>
<g style="mix-blend-mode:overlay">
<path d="M35.26 27.3568H34.271V28.3457H35.26V27.3568ZM35.26 18.1718V17.1829H34.271V18.1718H35.26ZM52.4204 18.1718H53.4094V17.1829H52.4204V18.1718ZM52.4204 70.0778V71.0668H53.4094V70.0778H52.4204ZM42.1669 70.0778H41.1779V71.0668H42.1669V70.0778ZM42.1669 27.3568H43.1558V26.3679H42.1669V27.3568ZM36.2489 27.3568V18.1718H34.271V27.3568H36.2489ZM35.26 19.1607H52.4204V17.1829H35.26V19.1607ZM51.4314 18.1718V70.0778H53.4094V18.1718H51.4314ZM52.4204 69.0889H42.1669V71.0668H52.4204V69.0889ZM43.1558 70.0778V27.3568H41.1779V70.0778H43.1558ZM42.1669 26.3679H35.26V28.3457H42.1669V26.3679Z" fill="white"/>
</g>
</g>
<defs>
<linearGradient id="paint0_linear_42_618" x1="45.2658" y1="0.853999" x2="45.2658" y2="90.8451" gradientUnits="userSpaceOnUse">
<stop/>
<stop offset="0.796875" stop-opacity="0"/>
</linearGradient>
<linearGradient id="paint1_linear_42_618" x1="48.8255" y1="-6.45994" x2="-6.21038" y2="48.727" gradientUnits="userSpaceOnUse">
<stop stop-color="#738F8E"/>
<stop offset="1" stop-color="#5B7275"/>
</linearGradient>
</defs>
</svg>
