<svg width="91" height="91" viewBox="0 0 91 91" fill="none" xmlns="http://www.w3.org/2000/svg">
<mask id="mask0_42_624" style="mask-type:alpha" maskUnits="userSpaceOnUse" x="0" y="0" width="91" height="91">
<path d="M45.2611 90.8451C70.1127 90.8451 90.2589 70.6999 90.2589 45.8495C90.2589 20.9992 70.1127 0.854004 45.2611 0.854004C20.4096 0.854004 0.263428 20.9992 0.263428 45.8495C0.263428 70.6999 20.4096 90.8451 45.2611 90.8451Z" fill="url(#paint0_linear_42_624)"/>
</mask>
<g mask="url(#mask0_42_624)">
<path d="M41.8623 49.4295C45.6124 45.727 48.2233 42.7365 49.6949 40.4581C51.2139 38.1322 51.9734 35.83 51.9734 33.5515C51.9734 31.4629 51.4038 29.8253 50.2645 28.6386C49.1252 27.4044 47.3688 26.7873 44.9953 26.7873C42.7168 26.7873 40.9366 27.5706 39.6549 29.137C38.4207 30.7034 37.7561 32.9107 37.6612 35.7588H27.9773C28.0248 31.9139 28.808 28.6861 30.3271 26.0753C31.8936 23.4171 33.9585 21.4709 36.5219 20.2368C39.1328 18.9551 42.0522 18.3143 45.2802 18.3143C48.8879 18.3143 51.9497 18.9551 54.4656 20.2368C57.029 21.5184 58.9515 23.2985 60.2332 25.5769C61.5149 27.8079 62.1558 30.3712 62.1558 33.2667C62.1558 36.4945 61.2538 39.6274 59.45 42.6653C57.6936 45.7033 54.5606 49.4295 50.0509 53.844L42.0047 61.8186H63.2239V70.078H28.0485V62.8154L41.8623 49.4295Z" fill="url(#paint1_linear_42_624)"/>
<g style="mix-blend-mode:overlay">
<path d="M41.8623 49.4294L42.5506 50.1395L42.5572 50.1331L41.8623 49.4294ZM49.6949 40.458L48.8669 39.9172L48.8642 39.9215L49.6949 40.458ZM50.2645 28.6385L49.5378 29.3093L49.5445 29.3164L49.5512 29.3233L50.2645 28.6385ZM39.6549 29.1369L38.8896 28.5107L38.8839 28.5177L38.8781 28.5249L39.6549 29.1369ZM37.6612 35.7587V36.7476H38.6178L38.6497 35.7916L37.6612 35.7587ZM27.9773 35.7587L26.9884 35.7464L26.9761 36.7476H27.9773V35.7587ZM30.3271 26.0752L29.4751 25.5732L29.4723 25.5779L30.3271 26.0752ZM36.5219 20.2367L36.951 21.1277L36.9578 21.1244L36.5219 20.2367ZM54.4656 20.2367L54.0167 21.1179L54.0234 21.1212L54.4656 20.2367ZM60.2332 25.5768L59.3713 26.0617L59.3757 26.0694L60.2332 25.5768ZM59.45 42.6652L58.5996 42.1603L58.5938 42.1703L59.45 42.6652ZM50.0509 53.8439L49.3591 53.1372L49.3548 53.1416L50.0509 53.8439ZM42.0047 61.8185L41.3086 61.1162L39.6021 62.8074H42.0047V61.8185ZM63.2239 61.8185H64.2128V60.8296H63.2239V61.8185ZM63.2239 70.0779V71.0668H64.2128V70.0779H63.2239ZM28.0485 70.0779H27.0595V71.0668H28.0485V70.0779ZM28.0485 62.8153L27.3603 62.1052L27.0595 62.3966V62.8153H28.0485ZM42.5572 50.1331C46.3201 46.418 48.9938 43.3663 50.5257 40.9945L48.8642 39.9215C47.4529 42.1066 44.9048 45.0359 41.1676 48.7257L42.5572 50.1331ZM50.5229 40.9987C52.1238 38.5475 52.9624 36.0604 52.9624 33.5514H50.9845C50.9845 35.5993 50.3041 37.7166 48.8669 39.9172L50.5229 40.9987ZM52.9624 33.5514C52.9624 31.2794 52.3383 29.3705 50.978 27.9537L49.5512 29.3233C50.4694 30.2798 50.9845 31.6463 50.9845 33.5514H52.9624ZM50.9912 27.9677C49.5981 26.4584 47.5282 25.7983 44.9953 25.7983V27.7762C47.2096 27.7762 48.6525 28.3502 49.5378 29.3093L50.9912 27.9677ZM44.9953 25.7983C42.4623 25.7983 40.3842 26.684 38.8896 28.5107L40.4204 29.7631C41.4892 28.4569 42.9713 27.7762 44.9953 27.7762V25.7983ZM38.8781 28.5249C37.4683 30.3143 36.7719 32.7543 36.6728 35.7257L38.6497 35.7916C38.7405 33.0668 39.3733 31.0923 40.4318 29.7489L38.8781 28.5249ZM37.6612 34.7697H27.9773V36.7476H37.6612V34.7697ZM28.9663 35.7708C29.0121 32.0508 29.769 29.0008 31.1819 26.5725L29.4723 25.5779C27.8472 28.3711 27.0375 31.7766 26.9884 35.7464L28.9663 35.7708ZM31.1792 26.5773C32.6551 24.0729 34.579 22.2697 36.951 21.1277L36.0929 19.3457C33.3382 20.672 31.1322 22.7612 29.4751 25.5732L31.1792 26.5773ZM36.9578 21.1244C39.4187 19.9164 42.1865 19.3031 45.2802 19.3031V17.3253C41.9179 17.3253 38.847 17.9937 36.0862 19.3489L36.9578 21.1244ZM45.2802 19.3031C48.774 19.3031 51.6731 19.9241 54.0167 21.1179L54.9146 19.3556C52.2264 17.9861 49.0019 17.3253 45.2802 17.3253V19.3031ZM54.0234 21.1212C56.4278 22.3234 58.1957 23.9718 59.3713 26.0617L61.0952 25.0919C59.7074 22.6248 57.6302 20.7132 54.908 19.3522L54.0234 21.1212ZM59.3757 26.0694C60.561 28.1325 61.1668 30.5218 61.1668 33.2666H63.1447C63.1447 30.2203 62.469 27.4831 61.0908 25.0842L59.3757 26.0694ZM61.1668 33.2666C61.1668 36.3002 60.3216 39.2602 58.5996 42.1603L60.3004 43.1701C62.1861 39.9943 63.1447 36.6886 63.1447 33.2666H61.1668ZM58.5938 42.1703C56.9046 45.092 53.847 48.7441 49.3591 53.1372L50.7428 54.5506C55.2742 50.1147 58.4826 46.3143 60.3062 43.1602L58.5938 42.1703ZM49.3548 53.1416L41.3086 61.1162L42.7009 62.5208L50.7471 54.5462L49.3548 53.1416ZM42.0047 62.8074H63.2239V60.8296H42.0047V62.8074ZM62.2349 61.8185V70.0779H64.2128V61.8185H62.2349ZM63.2239 69.089H28.0485V71.0668H63.2239V69.089ZM29.0375 70.0779V62.8153H27.0595V70.0779H29.0375ZM28.7368 63.5255L42.5506 50.1395L41.1741 48.7193L27.3603 62.1052L28.7368 63.5255Z" fill="white"/>
</g>
</g>
<defs>
<linearGradient id="paint0_linear_42_624" x1="45.2611" y1="0.853999" x2="45.2611" y2="90.8451" gradientUnits="userSpaceOnUse">
<stop/>
<stop offset="0.796875" stop-opacity="0"/>
</linearGradient>
<linearGradient id="paint1_linear_42_624" x1="50.7348" y1="-6.45989" x2="1.22297" y2="72.6086" gradientUnits="userSpaceOnUse">
<stop stop-color="#738F8E"/>
<stop offset="1" stop-color="#5B7275"/>
</linearGradient>
</defs>
</svg>
