<svg width="91" height="91" viewBox="0 0 91 91" fill="none" xmlns="http://www.w3.org/2000/svg">
<mask id="mask0_42_630" style="mask-type:alpha" maskUnits="userSpaceOnUse" x="0" y="0" width="91" height="91">
<path d="M45.2565 90.8451C70.1081 90.8451 90.2542 70.6999 90.2542 45.8495C90.2542 20.9992 70.1081 0.854004 45.2565 0.854004C20.405 0.854004 0.258789 20.9992 0.258789 45.8495C0.258789 70.6999 20.405 90.8451 45.2565 90.8451Z" fill="url(#paint0_linear_42_630)"/>
</mask>
<g mask="url(#mask0_42_630)">
<path d="M48.8143 38.1796C53.3714 38.7017 56.9317 40.3394 59.495 43.0925C62.0584 45.7982 63.3401 49.4295 63.3401 53.9864C63.3401 57.2616 62.6043 60.1572 61.1328 62.673C59.6612 65.1413 57.5725 67.0638 54.8667 68.4403C52.1609 69.7694 48.9804 70.434 45.3252 70.434C40.1035 70.434 35.8312 69.0811 32.5083 66.3755C29.2328 63.6698 27.5002 59.6825 27.3103 54.4136H37.2078C37.3028 56.7395 38.0623 58.6145 39.4864 60.0385C40.9105 61.4151 42.9042 62.1034 45.4676 62.1034C47.9835 62.1034 49.9535 61.3676 51.3777 59.8961C52.8492 58.4246 53.585 56.3598 53.585 53.7016C53.585 50.9959 52.8018 48.8836 51.2352 47.3646C49.6687 45.8456 47.5326 45.0862 44.8268 45.0862H37.6351V38.322L49.0991 26.7873H29.8737V18.3855H61.1328V25.9329L48.8143 38.1796Z" fill="url(#paint1_linear_42_630)"/>
<g style="mix-blend-mode:overlay">
<path d="M48.8144 38.1795L48.1171 37.4781L46.6588 38.9279L48.7017 39.162L48.8144 38.1795ZM59.4952 43.0924L58.7713 43.7662L58.7772 43.7725L59.4952 43.0924ZM61.1329 62.6729L61.9824 63.1793L61.9865 63.1722L61.1329 62.6729ZM54.8668 68.4402L55.3029 69.3279L55.3152 69.3216L54.8668 68.4402ZM32.5084 66.3754L31.8785 67.1378L31.884 67.1422L32.5084 66.3754ZM27.3104 54.4135V53.4246H26.2852L26.322 54.4491L27.3104 54.4135ZM37.2079 54.4135L38.1961 54.3731L38.1573 53.4246H37.2079V54.4135ZM39.4865 60.0384L38.7872 60.7377L38.7931 60.7436L38.7992 60.7494L39.4865 60.0384ZM51.3778 59.896L50.6785 59.1968L50.6727 59.2025L50.6671 59.2083L51.3778 59.896ZM37.6352 45.0861H36.6462V46.075H37.6352V45.0861ZM37.6352 38.3219L36.9337 37.6248L36.6462 37.9141V38.3219H37.6352ZM49.0992 26.7872L49.8007 27.4843L51.4764 25.7983H49.0992V26.7872ZM29.8738 26.7872H28.8848V27.7761H29.8738V26.7872ZM29.8738 18.3854V17.3965H28.8848V18.3854H29.8738ZM61.1329 18.3854H62.1218V17.3965H61.1329V18.3854ZM61.1329 25.9328L61.8301 26.634L62.1218 26.3441V25.9328H61.1329ZM48.7017 39.162C53.0783 39.6634 56.4016 41.2212 58.7713 43.7662L60.219 42.4186C57.4619 39.4574 53.6646 37.7398 48.9269 37.197L48.7017 39.162ZM58.7772 43.7725C61.1296 46.2554 62.3513 49.6229 62.3513 53.9863H64.3292C64.3292 49.2357 62.9875 45.3407 60.213 42.4122L58.7772 43.7725ZM62.3513 53.9863C62.3513 57.1083 61.6516 59.8274 60.2792 62.1736L61.9865 63.1722C63.5573 60.4868 64.3292 57.4148 64.3292 53.9863H62.3513ZM60.2834 62.1665C58.913 64.4653 56.9676 66.2619 54.4183 67.5588L55.3152 69.3216C58.1777 67.8654 60.4098 65.8171 61.9824 63.1793L60.2834 62.1665ZM54.4308 67.5526C51.8865 68.8024 48.861 69.445 45.3253 69.445V71.4228C49.1 71.4228 52.4356 70.7364 55.3029 69.3279L54.4308 67.5526ZM45.3253 69.445C40.2796 69.445 36.2432 68.1412 33.1328 65.6086L31.884 67.1422C35.4194 70.0209 39.9275 71.4228 45.3253 71.4228V69.445ZM33.1383 65.6129C30.1315 63.1293 28.481 59.4379 28.2987 54.3779L26.322 54.4491C26.5194 59.9269 28.3344 64.2102 31.8785 67.1378L33.1383 65.6129ZM27.3104 55.4024H37.2079V53.4246H27.3104V55.4024ZM36.2198 54.4538C36.3231 56.9864 37.1603 59.1108 38.7872 60.7377L40.1858 59.3392C38.9645 58.1179 38.2825 56.4923 38.1961 54.3731L36.2198 54.4538ZM38.7992 60.7494C40.4572 62.3522 42.7262 63.0922 45.4677 63.0922V61.1144C43.0825 61.1144 41.3639 60.4778 40.1738 59.3274L38.7992 60.7494ZM45.4677 63.0922C48.1862 63.0922 50.437 62.2902 52.0884 60.5837L50.6671 59.2083C49.4704 60.4449 47.7811 61.1144 45.4677 61.1144V63.0922ZM52.0771 60.5953C53.7818 58.8906 54.5741 56.5457 54.5741 53.7015H52.5962C52.5962 56.1736 51.9168 57.9584 50.6785 59.1968L52.0771 60.5953ZM54.5741 53.7015C54.5741 50.7965 53.7264 48.4026 51.9238 46.6546L50.5468 48.0744C51.8772 49.3644 52.5962 51.195 52.5962 53.7015H54.5741ZM51.9238 46.6546C50.1309 44.9161 47.7246 44.0971 44.8269 44.0971V46.075C47.3406 46.075 49.2068 46.775 50.5468 48.0744L51.9238 46.6546ZM44.8269 44.0971H37.6352V46.075H44.8269V44.0971ZM38.6241 45.0861V38.3219H36.6462V45.0861H38.6241ZM38.3366 39.019L49.8007 27.4843L48.3977 26.0901L36.9337 37.6248L38.3366 39.019ZM49.0992 25.7983H29.8738V27.7761H49.0992V25.7983ZM30.8628 26.7872V18.3854H28.8848V26.7872H30.8628ZM29.8738 19.3743H61.1329V17.3965H29.8738V19.3743ZM60.1439 18.3854V25.9328H62.1218V18.3854H60.1439ZM60.4356 25.2314L48.1171 37.4781L49.5116 38.8807L61.8301 26.634L60.4356 25.2314Z" fill="white"/>
</g>
</g>
<defs>
<linearGradient id="paint0_linear_42_630" x1="45.2565" y1="0.853999" x2="45.2565" y2="90.8451" gradientUnits="userSpaceOnUse">
<stop/>
<stop offset="0.796875" stop-opacity="0"/>
</linearGradient>
<linearGradient id="paint1_linear_42_630" x1="50.9692" y1="-6.45993" x2="2.47068" y2="74.5927" gradientUnits="userSpaceOnUse">
<stop stop-color="#738F8E"/>
<stop offset="1" stop-color="#5B7275"/>
</linearGradient>
</defs>
</svg>
