<svg width="91" height="91" viewBox="0 0 91 91" fill="none" xmlns="http://www.w3.org/2000/svg">
<mask id="mask0_42_636" style="mask-type:alpha" maskUnits="userSpaceOnUse" x="0" y="0" width="91" height="91">
<path d="M45.2519 90.8451C70.1034 90.8451 90.2496 70.6999 90.2496 45.8495C90.2496 20.9992 70.1034 0.854004 45.2519 0.854004C20.4003 0.854004 0.25415 20.9992 0.25415 45.8495C0.25415 70.6999 20.4003 90.8451 45.2519 90.8451Z" fill="url(#paint0_linear_42_636)"/>
</mask>
<g mask="url(#mask0_42_636)">
<path d="M24.8958 59.9673V52.1352L48.1798 18.8127H59.7863V51.2807H66.0523V59.9673H59.7863V70.078H49.8176V59.9673H24.8958ZM50.4584 29.493L35.8613 51.2807H50.4584V29.493Z" fill="url(#paint1_linear_42_636)"/>
<g style="mix-blend-mode:overlay">
<path d="M24.8957 59.9672H23.9067V60.9562H24.8957V59.9672ZM24.8957 52.1351L24.085 51.5686L23.9067 51.8238V52.1351H24.8957ZM48.1798 18.8126V17.8237H47.6643L47.3691 18.2462L48.1798 18.8126ZM59.7862 18.8126H60.7752V17.8237H59.7862V18.8126ZM59.7862 51.2806H58.7973V52.2696H59.7862V51.2806ZM66.0523 51.2806H67.0413V50.2917H66.0523V51.2806ZM66.0523 59.9672V60.9562H67.0413V59.9672H66.0523ZM59.7862 59.9672V58.9783H58.7973V59.9672H59.7862ZM59.7862 70.0779V71.0668H60.7752V70.0779H59.7862ZM49.8175 70.0779H48.8286V71.0668H49.8175V70.0779ZM49.8175 59.9672H50.8065V58.9783H49.8175V59.9672ZM50.4584 29.4929H51.4473V26.24L49.6367 28.9425L50.4584 29.4929ZM35.8613 51.2806L35.0397 50.7302L34.0084 52.2696H35.8613V51.2806ZM50.4584 51.2806V52.2696H51.4473V51.2806H50.4584ZM25.8847 59.9672V52.1351H23.9067V59.9672H25.8847ZM25.7064 52.7015L48.9904 19.3791L47.3691 18.2462L24.085 51.5686L25.7064 52.7015ZM48.1798 19.8016H59.7862V17.8237H48.1798V19.8016ZM58.7973 18.8126V51.2806H60.7752V18.8126H58.7973ZM59.7862 52.2696H66.0523V50.2917H59.7862V52.2696ZM65.0633 51.2806V59.9672H67.0413V51.2806H65.0633ZM66.0523 58.9783H59.7862V60.9562H66.0523V58.9783ZM58.7973 59.9672V70.0779H60.7752V59.9672H58.7973ZM59.7862 69.089H49.8175V71.0668H59.7862V69.089ZM50.8065 70.0779V59.9672H48.8286V70.0779H50.8065ZM49.8175 58.9783H24.8957V60.9562H49.8175V58.9783ZM49.6367 28.9425L35.0397 50.7302L36.6829 51.8311L51.28 30.0433L49.6367 28.9425ZM35.8613 52.2696H50.4584V50.2917H35.8613V52.2696ZM51.4473 51.2806V29.4929H49.4694V51.2806H51.4473Z" fill="white"/>
</g>
</g>
<defs>
<linearGradient id="paint0_linear_42_636" x1="45.2519" y1="0.853999" x2="45.2519" y2="90.8451" gradientUnits="userSpaceOnUse">
<stop/>
<stop offset="0.796875" stop-opacity="0"/>
</linearGradient>
<linearGradient id="paint1_linear_42_636" x1="50.8292" y1="-6.45989" x2="3.86236" y2="77.2658" gradientUnits="userSpaceOnUse">
<stop stop-color="#738F8E"/>
<stop offset="1" stop-color="#5B7275"/>
</linearGradient>
</defs>
</svg>
