<svg width="91" height="91" viewBox="0 0 91 91" fill="none" xmlns="http://www.w3.org/2000/svg">
<mask id="mask0_42_642" style="mask-type:alpha" maskUnits="userSpaceOnUse" x="0" y="0" width="91" height="91">
<path d="M45.2472 90.8451C70.0988 90.8451 90.2449 70.6999 90.2449 45.8495C90.2449 20.9992 70.0988 0.854004 45.2472 0.854004C20.3957 0.854004 0.249512 20.9992 0.249512 45.8495C0.249512 70.6999 20.3957 90.8451 45.2472 90.8451Z" fill="url(#paint0_linear_42_642)"/>
</mask>
<g mask="url(#mask0_42_642)">
<path d="M61.3292 26.7874H38.2588V38.9629C39.2556 37.7287 40.6797 36.7319 42.5311 35.9724C44.3824 35.1654 46.3524 34.762 48.4411 34.762C52.2387 34.762 55.348 35.5926 57.769 37.254C60.19 38.9154 61.9464 41.0514 63.0382 43.6622C64.13 46.2254 64.6759 48.9786 64.6759 51.9216C64.6759 57.3804 63.1094 61.7711 59.9763 65.0939C56.8908 68.4166 52.4761 70.078 46.7322 70.078C41.3206 70.078 37.0008 68.7252 33.7728 66.0195C30.5449 63.3138 28.7173 59.7775 28.29 55.4105H37.9739C38.4012 57.3092 39.3506 58.8281 40.8222 59.9674C42.3412 61.1066 44.2637 61.6762 46.5898 61.6762C49.3905 61.6762 51.5029 60.7981 52.927 59.0417C54.3511 57.2854 55.0632 54.9595 55.0632 52.064C55.0632 49.121 54.3274 46.89 52.8558 45.371C51.4317 43.8046 49.3193 43.0214 46.5186 43.0214C44.5248 43.0214 42.8634 43.5198 41.5342 44.5166C40.205 45.5134 39.2556 46.8425 38.686 48.5039H29.1445V18.0295H61.3292V26.7874Z" fill="url(#paint1_linear_42_642)"/>
<g style="mix-blend-mode:overlay">
<path d="M61.3293 26.7873V27.7762H62.3183V26.7873H61.3293ZM38.2589 26.7873V25.7983H37.2699V26.7873H38.2589ZM38.2589 38.9628H37.2699V41.761L39.0283 39.5841L38.2589 38.9628ZM42.5312 35.9723L42.9066 36.8872L42.9165 36.8831L42.9264 36.8788L42.5312 35.9723ZM63.0383 43.6621L62.1258 44.0436L62.1284 44.0496L63.0383 43.6621ZM59.9764 65.0938L59.2569 64.4154L59.2517 64.4208L59.9764 65.0938ZM28.2901 55.4104V54.4214H27.1997L27.3059 55.5067L28.2901 55.4104ZM37.974 55.4104L38.9389 55.1933L38.7652 54.4214H37.974V55.4104ZM40.8222 59.9673L40.2169 60.7492L40.2228 60.7538L40.2289 60.7584L40.8222 59.9673ZM52.8559 45.3709L52.1242 46.0362L52.1348 46.0477L52.1457 46.059L52.8559 45.3709ZM38.6861 48.5038V49.4927H39.3925L39.6216 48.8245L38.6861 48.5038ZM29.1446 48.5038H28.1556V49.4927H29.1446V48.5038ZM29.1446 18.0294V17.0405H28.1556V18.0294H29.1446ZM61.3293 18.0294H62.3183V17.0405H61.3293V18.0294ZM61.3293 25.7983H38.2589V27.7762H61.3293V25.7983ZM37.2699 26.7873V38.9628H39.2478V26.7873H37.2699ZM39.0283 39.5841C39.8967 38.5089 41.1697 37.5997 42.9066 36.8872L42.1559 35.0573C40.19 35.8638 38.6148 36.9482 37.4895 38.3414L39.0283 39.5841ZM42.9264 36.8788C44.6487 36.128 46.4838 35.7508 48.4412 35.7508V33.7729C46.2213 33.7729 44.1163 34.2026 42.136 35.0657L42.9264 36.8788ZM48.4412 35.7508C52.0973 35.7508 54.9955 36.5499 57.2095 38.0693L58.3287 36.4386C55.7008 34.6352 52.3804 33.7729 48.4412 33.7729V35.7508ZM57.2095 38.0693C59.4798 39.6272 61.1104 41.6152 62.1258 44.0436L63.9507 43.2805C62.7826 40.4875 60.9003 38.2033 58.3287 36.4386L57.2095 38.0693ZM62.1284 44.0496C63.1651 46.4835 63.687 49.1041 63.687 51.9215H65.6649C65.6649 48.8529 65.0951 45.9671 63.9482 43.2745L62.1284 44.0496ZM63.687 51.9215C63.687 57.1804 62.1841 61.311 59.2569 64.4154L60.696 65.7722C64.0349 62.2311 65.6649 57.5801 65.6649 51.9215H63.687ZM59.2517 64.4208C56.4006 67.4913 52.2793 69.089 46.7323 69.089V71.0668C52.6732 71.0668 57.3813 69.3418 60.7012 65.7667L59.2517 64.4208ZM46.7323 69.089C41.4855 69.089 37.4125 67.7797 34.4082 65.2615L33.1376 66.7773C36.5893 69.6705 41.1559 71.0668 46.7323 71.0668V69.089ZM34.4082 65.2615C31.3878 62.7298 29.6776 59.4353 29.2744 55.314L27.3059 55.5067C27.7572 60.1194 29.7022 63.8977 33.1376 66.7773L34.4082 65.2615ZM28.2901 56.3993H37.974V54.4214H28.2901V56.3993ZM37.0092 55.6274C37.4844 57.7393 38.5547 59.4624 40.2169 60.7492L41.4277 59.1853C40.1468 58.1937 39.3181 56.8788 38.9389 55.1933L37.0092 55.6274ZM40.2289 60.7584C41.9547 62.0527 44.0991 62.665 46.5899 62.665V60.6872C44.4287 60.6872 42.728 60.1603 41.4156 59.1761L40.2289 60.7584ZM46.5899 62.665C49.6107 62.665 52.0392 61.7069 53.6954 59.6645L52.159 58.4188C50.9668 59.889 49.1706 60.6872 46.5899 60.6872V62.665ZM53.6954 59.6645C55.2983 57.6875 56.0522 55.1215 56.0522 52.0639H54.0743C54.0743 54.7973 53.4042 56.8831 52.159 58.4188L53.6954 59.6645ZM56.0522 52.0639C56.0522 48.9658 55.2767 46.4483 53.5663 44.6828L52.1457 46.059C53.3784 47.3314 54.0743 49.2759 54.0743 52.0639H56.0522ZM53.5878 44.7057C51.9208 42.8721 49.5034 42.0323 46.5187 42.0323V44.0102C49.1355 44.0102 50.9429 44.7368 52.1242 46.0362L53.5878 44.7057ZM46.5187 42.0323C44.355 42.0323 42.4734 42.576 40.9409 43.7254L42.1277 45.3076C43.2535 44.4633 44.6949 44.0102 46.5187 44.0102V42.0323ZM40.9409 43.7254C39.4438 44.8481 38.3807 46.3455 37.7506 48.1831L39.6216 48.8245C40.1309 47.3393 40.9664 46.1785 42.1277 45.3076L40.9409 43.7254ZM38.6861 47.5149H29.1446V49.4927H38.6861V47.5149ZM30.1336 48.5038V18.0294H28.1556V48.5038H30.1336ZM29.1446 19.0184H61.3293V17.0405H29.1446V19.0184ZM60.3404 18.0294V26.7873H62.3183V18.0294H60.3404Z" fill="white"/>
</g>
</g>
<defs>
<linearGradient id="paint0_linear_42_642" x1="45.2472" y1="0.853999" x2="45.2472" y2="90.8451" gradientUnits="userSpaceOnUse">
<stop/>
<stop offset="0.796875" stop-opacity="0"/>
</linearGradient>
<linearGradient id="paint1_linear_42_642" x1="51.1995" y1="-6.45988" x2="3.72206" y2="76.4127" gradientUnits="userSpaceOnUse">
<stop stop-color="#738F8E"/>
<stop offset="1" stop-color="#5B7275"/>
</linearGradient>
</defs>
</svg>
