<svg width="70" height="71" viewBox="0 0 70 71" fill="none" xmlns="http://www.w3.org/2000/svg">
<path d="M58.2114 64.7349L46.9247 53.4482L44.768 59.9902C44.5284 60.6612 44.0731 60.9842 43.4021 60.9592C42.7311 60.9363 42.2758 60.5893 42.0362 59.9183L35.4943 38.1358C35.3025 37.6085 35.4223 37.1293 35.8536 36.6979C36.285 36.2666 36.7643 36.1468 37.2915 36.3385L59.074 42.8805C59.745 43.1201 60.093 43.5754 60.1179 44.2464C60.1409 44.9173 59.8169 45.3726 59.1459 45.6123L52.604 47.769L63.8906 59.0556C64.1782 59.3432 64.322 59.6787 64.322 60.062C64.322 60.4455 64.1782 60.781 63.8906 61.0686L60.2243 64.7349C59.9367 65.0225 59.6013 65.1662 59.2179 65.1662C58.8345 65.1662 58.4989 65.0225 58.2114 64.7349Z" fill="#7C3AED"/>
<path d="M34.7041 64.3034C30.7262 64.3034 26.988 63.5481 23.4894 62.0374C19.9907 60.5287 16.9474 58.4803 14.3594 55.8922C11.7714 53.3042 9.72293 50.2609 8.21421 46.7623C6.70356 43.2636 5.94824 39.5253 5.94824 35.5475C5.94824 31.5696 6.70356 27.8313 8.21421 24.3327C9.72293 20.8341 11.7714 17.7907 14.3594 15.2027C16.9474 12.6147 19.9907 10.5654 23.4894 9.05471C26.988 7.54599 30.7262 6.79163 34.7041 6.79163C38.682 6.79163 42.4203 7.54599 45.9189 9.05471C49.4176 10.5654 52.4609 12.6147 55.0489 15.2027C57.6369 17.7907 59.6853 20.8341 61.194 24.3327C62.7046 27.8313 63.4599 31.5696 63.4599 35.5475C63.4599 35.9788 63.4599 36.4102 63.4599 36.8415C63.4599 37.2728 63.412 37.7042 63.3162 38.1355L57.7088 36.4102V35.5475C57.7088 29.1253 55.4802 23.6857 51.023 19.2285C46.5659 14.7714 41.1263 12.5428 34.7041 12.5428C28.282 12.5428 22.8423 14.7714 18.3852 19.2285C13.928 23.6857 11.6994 29.1253 11.6994 35.5475C11.6994 41.9696 13.928 47.4093 18.3852 51.8664C22.8423 56.3236 28.282 58.5521 34.7041 58.5521H35.5668L37.2922 64.1595C36.8608 64.2555 36.4295 64.3034 35.9982 64.3034C35.5668 64.3034 35.1355 64.3034 34.7041 64.3034Z" fill="#7C3AED"/>
<path opacity="0.3" d="M33.8413 52.8011C29.2403 52.5614 25.3583 50.7882 22.1952 47.4813C19.032 44.1744 17.4504 40.1965 17.4504 35.5476C17.4504 30.755 19.1279 26.6812 22.4827 23.3264C25.8376 19.9715 29.9113 18.2941 34.704 18.2941C39.3528 18.2941 43.3307 19.8757 46.6377 23.0388C49.9445 26.2019 51.7179 30.0839 51.9575 34.6849L45.9187 32.8877C45.2957 30.2997 43.9538 28.1793 41.893 26.5269C39.8321 24.8725 37.4357 24.0452 34.704 24.0452C31.5408 24.0452 28.8329 25.1715 26.5804 27.424C24.3279 29.6766 23.2016 32.3845 23.2016 35.5476C23.2016 38.2794 24.0289 40.6757 25.6832 42.7366C27.3357 44.7974 29.456 46.1394 32.0441 46.7624L33.8413 52.8011Z" fill="#7C3AED"/>
<path opacity="0.3" d="M22.1952 47.4813C25.3583 50.7882 29.2403 52.5614 33.8413 52.8011L32.0441 46.7624C29.456 46.1394 27.3357 44.7974 25.6832 42.7366C24.0289 40.6757 23.2016 38.2794 23.2016 35.5476C23.2016 32.3845 24.3279 29.6766 26.5804 27.424C28.8329 25.1715 31.5408 24.0452 34.704 24.0452C37.4357 24.0452 39.8321 24.8725 41.893 26.5269C43.9538 28.1793 45.2957 30.2997 45.9187 32.8877L51.9575 34.6849C51.7179 30.0839 49.9445 26.2019 46.6377 23.0388C43.3307 19.8757 39.3528 18.2941 34.704 18.2941C29.9113 18.2941 25.8376 19.9715 22.4827 23.3264C19.1279 26.6812 17.4504 30.755 17.4504 35.5476C17.4504 40.1965 19.032 44.1744 22.1952 47.4813Z" fill="#7C3AED"/>
</svg>
