<svg width="70" height="71" viewBox="0 0 70 71" fill="none" xmlns="http://www.w3.org/2000/svg">
<path d="M58.6249 20.4509H15.4911C14.919 20.4509 14.3705 20.2236 13.9661 19.8192C13.5616 19.4148 13.3344 18.8662 13.3344 18.2942C13.3344 17.7221 13.5616 17.1736 13.9661 16.7692C14.3705 16.3647 14.919 16.1375 15.4911 16.1375H52.1548C52.7268 16.1375 53.2754 15.9102 53.6798 15.5058C54.0842 15.1014 54.3115 14.5528 54.3115 13.9808C54.3115 13.4088 54.0842 12.8602 53.6798 12.4558C53.2754 12.0514 52.7268 11.8241 52.1548 11.8241H15.4911C13.7751 11.8241 12.1294 12.5058 10.916 13.7191C9.70267 14.9325 9.021 16.5782 9.021 18.2942V52.8012C9.021 54.5172 9.70267 56.1629 10.916 57.3763C12.1294 58.5896 13.7751 59.2713 15.4911 59.2713H58.6249C59.7688 59.2713 60.866 58.8169 61.6749 58.0079C62.4838 57.199 62.9382 56.1019 62.9382 54.9579V24.7642C62.9382 23.6203 62.4838 22.5232 61.6749 21.7142C60.866 20.9053 59.7688 20.4509 58.6249 20.4509ZM48.9198 42.0178C48.2799 42.0178 47.6545 41.8281 47.1225 41.4725C46.5905 41.1171 46.1758 40.6118 45.931 40.0207C45.6861 39.4296 45.622 38.7791 45.7469 38.1516C45.8718 37.5241 46.1799 36.9476 46.6323 36.4953C47.0847 36.0428 47.6611 35.7347 48.2886 35.6098C48.9162 35.485 49.5667 35.5491 50.1577 35.794C50.7489 36.0388 51.2542 36.4535 51.6096 36.9855C51.9651 37.5175 52.1548 38.1429 52.1548 38.7827C52.1548 39.6407 51.814 40.4636 51.2072 41.0702C50.6006 41.6769 49.7778 42.0178 48.9198 42.0178Z" fill="#2563EB"/>
</svg>
