<svg width="70" height="72" viewBox="0 0 70 72" fill="none" xmlns="http://www.w3.org/2000/svg">
<path d="M43.7502 46.2535C43.7502 56.7244 35.2627 65.2119 24.7918 65.2119C14.321 65.2119 5.8335 56.7244 5.8335 46.2535C5.8335 35.7827 14.321 27.2952 24.7918 27.2952C25.2877 27.2952 25.8126 27.3244 26.3085 27.3535C35.5543 28.0827 42.9627 35.491 43.6919 44.7368C43.721 45.2327 43.7502 45.7577 43.7502 46.2535Z" fill="#06B281"/>
<path opacity="0.3" d="M64.1667 25.8368C64.1667 36.3076 55.6792 44.7951 45.2083 44.7951C44.7125 44.7951 44.1875 44.7659 43.6917 44.7368C42.9625 35.4909 35.5541 28.0826 26.3083 27.3535C26.2791 26.8576 26.25 26.3326 26.25 25.8368C26.25 15.3659 34.7375 6.87842 45.2083 6.87842C55.6792 6.87842 64.1667 15.3659 64.1667 25.8368Z" fill="#06B281"/>
<path d="M16.3043 6.87842H8.75016C7.146 6.87842 5.8335 8.19092 5.8335 9.79508V17.3493C5.8335 19.9451 8.98347 21.2576 10.821 19.4201L18.3751 11.866C20.1835 10.0284 18.9002 6.87842 16.3043 6.87842Z" fill="#06B281"/>
<path opacity="0.3" d="M53.6957 65.212H61.2498C62.854 65.212 64.1665 63.8995 64.1665 62.2953V54.7412C64.1665 52.1453 61.0165 50.8328 59.179 52.6703L51.6249 60.2245C49.8165 62.062 51.0998 65.212 53.6957 65.212Z" fill="#06B281"/>
</svg>
