<svg width="70" height="71" viewBox="0 0 70 71" fill="none" xmlns="http://www.w3.org/2000/svg">
<path d="M61.1758 13.9807V42.0177C61.1758 43.1617 60.7214 44.2588 59.9125 45.0677C59.1035 45.8767 58.0064 46.3311 56.8625 46.3311H30.9822V50.6445C30.9825 51.0713 30.8562 51.4886 30.6193 51.8435C30.3824 52.1986 30.0454 52.4752 29.6511 52.6386C29.2567 52.802 28.8228 52.8446 28.4043 52.7613C27.9857 52.6779 27.6013 52.4723 27.2996 52.1704L20.8295 45.7003C20.6291 45.5 20.47 45.2621 20.3614 45.0003C20.2529 44.7384 20.1971 44.4579 20.1971 44.1744C20.1971 43.8909 20.2529 43.6104 20.3614 43.3485C20.47 43.0867 20.6291 42.8488 20.8295 42.6485L27.2996 36.1784C27.6013 35.8765 27.9857 35.6708 28.4043 35.5875C28.8228 35.5042 29.2567 35.5469 29.6511 35.7102C30.0454 35.8736 30.3824 36.1502 30.6193 36.5053C30.8562 36.8602 30.9825 37.2775 30.9822 37.7043V42.0177H56.8625V13.9807H26.6688V16.1374C26.6688 16.7095 26.4415 17.258 26.0371 17.6624C25.6327 18.0669 25.0841 18.2941 24.5121 18.2941C23.9401 18.2941 23.3915 18.0669 22.9871 17.6624C22.5827 17.258 22.3554 16.7095 22.3554 16.1374V13.9807C22.3554 12.8368 22.8098 11.7397 23.6188 10.9307C24.4277 10.1218 25.5248 9.66736 26.6688 9.66736H56.8625C58.0064 9.66736 59.1035 10.1218 59.9125 10.9307C60.7214 11.7397 61.1758 12.8368 61.1758 13.9807ZM46.079 52.8012C45.507 52.8012 44.9584 53.0284 44.554 53.4328C44.1496 53.8373 43.9223 54.3858 43.9223 54.9579V57.1145H13.7287V29.0776H39.6089V33.3909C39.6086 33.8178 39.7349 34.2351 39.9719 34.59C40.2089 34.9451 40.5458 35.2217 40.9401 35.3851C41.3344 35.5484 41.7683 35.5911 42.1868 35.5078C42.6054 35.4244 42.9898 35.2187 43.2915 34.9169L49.7616 28.4468C49.962 28.2464 50.1212 28.0085 50.2297 27.7468C50.3383 27.4849 50.3941 27.2043 50.3941 26.9209C50.3941 26.6374 50.3383 26.3568 50.2297 26.095C50.1212 25.8332 49.962 25.5953 49.7616 25.395L43.2915 18.9249C42.9898 18.623 42.6054 18.4173 42.1868 18.334C41.7683 18.2506 41.3344 18.2933 40.9401 18.4567C40.5458 18.6201 40.2089 18.8967 39.9719 19.2517C39.7349 19.6067 39.6086 20.024 39.6089 20.4508V24.7642H13.7287C12.5847 24.7642 11.4876 25.2186 10.6786 26.0275C9.86969 26.8365 9.41528 27.9336 9.41528 29.0776V57.1145C9.41528 58.2585 9.86969 59.3556 10.6786 60.1646C11.4876 60.9735 12.5847 61.4279 13.7287 61.4279H43.9223C45.0663 61.4279 46.1634 60.9735 46.9724 60.1646C47.7813 59.3556 48.2357 58.2585 48.2357 57.1145V54.9579C48.2357 54.3858 48.0085 53.8373 47.604 53.4328C47.1996 53.0284 46.651 52.8012 46.079 52.8012Z" fill="#0891B2"/>
</svg>
