<svg width="70" height="71" viewBox="0 0 70 71" fill="none" xmlns="http://www.w3.org/2000/svg">
<path d="M50.1955 25.1875V23.6858C50.1955 16.9246 39.9971 11.8241 26.4719 11.8241C12.9467 11.8241 2.74829 16.9246 2.74829 23.6858V34.4693C2.74829 40.101 9.82493 44.5761 20.0018 45.916V47.4094C20.0018 54.1707 30.2002 59.2713 43.7254 59.2713C57.2506 59.2713 67.449 54.1707 67.449 47.4094V36.626C67.449 31.0456 60.5961 26.5651 50.1955 25.1875ZM15.6884 40.6348C10.4073 39.1602 7.06167 36.7312 7.06167 34.4693V30.6763C9.2615 32.2344 12.2081 33.4908 15.6884 34.3345V40.6348ZM37.2553 34.3345C40.7357 33.4908 43.6822 32.2344 45.8821 30.6763V34.4693C45.8821 36.7312 42.5365 39.1602 37.2553 40.6348V34.3345ZM32.942 53.575C27.6608 52.1003 24.3152 49.6713 24.3152 47.4094V46.2853C25.0242 46.3123 25.7413 46.3311 26.4719 46.3311C27.5178 46.3311 28.5396 46.296 29.5425 46.2368C30.6566 46.6356 31.7914 46.974 32.942 47.2504V53.575ZM32.942 41.546C30.7999 41.8625 28.6373 42.0201 26.4719 42.0178C24.3065 42.0201 22.1439 41.8625 20.0018 41.546V35.1325C22.1472 35.412 24.3084 35.5507 26.4719 35.5477C28.6353 35.5507 30.7966 35.412 32.942 35.1325V41.546ZM50.1955 54.4861C45.9051 55.1152 41.5457 55.1152 37.2553 54.4861V48.0565C39.4 48.3448 41.5615 48.4889 43.7254 48.4878C45.8888 48.4909 48.0501 48.3522 50.1955 48.0727V54.4861ZM63.1356 47.4094C63.1356 49.6713 59.79 52.1003 54.5089 53.575V47.2747C57.9892 46.4309 60.9357 45.1746 63.1356 43.6164V47.4094Z" fill="#F59E0B"/>
</svg>
