<svg width="24" height="24" viewBox="0 0 24 24" fill="none" xmlns="http://www.w3.org/2000/svg">
<path d="M11.9404 22.4881H3.5204C2.3604 22.4881 1.4104 21.5581 1.4104 20.4181V5.57815C1.4104 2.95815 3.3604 1.76814 5.75043 2.93814L10.1904 5.11815C11.1504 5.58815 11.9404 6.83814 11.9404 7.89814V22.4881Z" fill="#5856D6"/>
<path fill-rule="evenodd" clip-rule="evenodd" d="M3.07421 3.4776C2.57316 3.78269 2.1604 4.44859 2.1604 5.57826V20.4182C2.1604 21.1301 2.76054 21.7382 3.5204 21.7382H11.1904V7.89824C11.1904 7.54264 11.0526 7.10214 10.7909 6.68694C10.5295 6.27214 10.1882 5.95227 9.86063 5.79186L5.42064 3.61187C5.42073 3.61192 5.42055 3.61183 5.42064 3.61187C4.38055 3.10279 3.57889 3.1703 3.07421 3.4776ZM2.29409 2.19642C3.36187 1.54625 4.73039 1.60387 6.08013 2.26464L10.5202 4.44465C10.5203 4.4447 10.5201 4.44461 10.5202 4.44465C11.1524 4.75427 11.6863 5.29446 12.0599 5.8871C12.4331 6.47936 12.6904 7.19384 12.6904 7.89824V22.4882C12.6904 22.9024 12.3546 23.2382 11.9404 23.2382H3.5204C1.96026 23.2382 0.6604 21.9864 0.6604 20.4182V5.57826C0.6604 4.08792 1.22264 2.84883 2.29409 2.19642Z" fill="#DEDDF7"/>
<path d="M21.4104 15.5483V19.3283C21.4104 21.4883 20.4104 22.4883 18.2504 22.4883H11.9404V10.9083L12.4104 11.0083L16.9104 12.0183L18.9404 12.4683C20.2604 12.7583 21.3404 13.4383 21.4004 15.3583C21.4104 15.4183 21.4104 15.4783 21.4104 15.5483Z" fill="#5856D6"/>
<path fill-rule="evenodd" clip-rule="evenodd" d="M11.4685 10.3253C11.6444 10.1829 11.8751 10.1275 12.0965 10.1746L12.5747 10.2763L17.0727 11.2859L17.0746 11.2864L19.1013 11.7356C19.1016 11.7357 19.1011 11.7356 19.1013 11.7356C19.8278 11.8953 20.5887 12.1821 21.1755 12.7738C21.7718 13.3752 22.1071 14.2076 22.1486 15.2938C22.1607 15.3943 22.1605 15.4842 22.1604 15.536C22.1604 15.5403 22.1604 15.5444 22.1604 15.5482V19.3282C22.1604 20.5092 21.8881 21.5312 21.1707 22.2485C20.4534 22.9658 19.4315 23.2382 18.2504 23.2382H11.9404C11.5262 23.2382 11.1904 22.9024 11.1904 22.4882V10.9082C11.1904 10.6819 11.2926 10.4677 11.4685 10.3253ZM12.6904 11.8397L16.7462 12.75L16.7481 12.7504L18.7781 13.2004L18.7795 13.2007C19.3728 13.3311 19.8123 13.5294 20.1103 13.83C20.3915 14.1136 20.6253 14.5678 20.6508 15.3816C20.6517 15.4128 20.6547 15.444 20.6595 15.4749C20.6596 15.476 20.6597 15.4775 20.6597 15.4794C20.66 15.4849 20.6602 15.4927 20.6603 15.5045L20.6604 15.5482V19.3282C20.6604 20.3071 20.4327 20.8652 20.1101 21.1878C19.7874 21.5105 19.2293 21.7382 18.2504 21.7382H12.6904V11.8397Z" fill="#DEDDF7"/>
<path fill-rule="evenodd" clip-rule="evenodd" d="M4.19043 9.48804C4.19043 9.07384 4.52622 8.73804 4.94043 8.73804H8.41043C8.82463 8.73804 9.16043 9.07384 9.16043 9.48804C9.16043 9.90224 8.82463 10.238 8.41043 10.238H4.94043C4.52622 10.238 4.19043 9.90224 4.19043 9.48804Z" fill="#DEDDF7"/>
<path fill-rule="evenodd" clip-rule="evenodd" d="M4.19043 13.488C4.19043 13.0738 4.52622 12.738 4.94043 12.738H8.41043C8.82463 12.738 9.16043 13.0738 9.16043 13.488C9.16043 13.9022 8.82463 14.238 8.41043 14.238H4.94043C4.52622 14.238 4.19043 13.9022 4.19043 13.488Z" fill="#DEDDF7"/>
<path d="M16.9104 12.0181V15.2381C16.9104 16.4781 15.9004 17.4881 14.6604 17.4881C13.4204 17.4881 12.4104 16.4781 12.4104 15.2381V11.0081L16.9104 12.0181Z" fill="#5856D6"/>
<path fill-rule="evenodd" clip-rule="evenodd" d="M11.9417 10.4225C12.1195 10.2802 12.3524 10.2264 12.5746 10.2762L17.0746 11.2862C17.417 11.3631 17.6604 11.6671 17.6604 12.018V15.238C17.6604 16.8922 16.3146 18.238 14.6604 18.238C13.0062 18.238 11.6604 16.8922 11.6604 15.238V11.008C11.6604 10.7803 11.7639 10.5648 11.9417 10.4225ZM13.1604 11.945V15.238C13.1604 16.0638 13.8346 16.738 14.6604 16.738C15.4862 16.738 16.1604 16.0638 16.1604 15.238V12.6184L13.1604 11.945Z" fill="#DEDDF7"/>
<path d="M21.4004 15.3581C21.3404 16.5381 20.3604 17.4881 19.1604 17.4881C17.9204 17.4881 16.9104 16.4781 16.9104 15.2381V12.0181L18.9404 12.4681C20.2604 12.7581 21.3404 13.4381 21.4004 15.3581Z" fill="#5856D6"/>
<path fill-rule="evenodd" clip-rule="evenodd" d="M16.4409 11.4331C16.6183 11.2908 16.8507 11.2366 17.0727 11.2858L19.1013 11.7355C19.1011 11.7354 19.1015 11.7356 19.1013 11.7355C19.8278 11.8951 20.5887 12.182 21.1754 12.7737C21.7792 13.3826 22.1154 14.2284 22.15 15.3346C22.1506 15.3551 22.1504 15.3756 22.1494 15.3961C22.0693 16.9706 20.7642 18.238 19.1604 18.238C17.5062 18.238 16.1604 16.8922 16.1604 15.238V12.018C16.1604 11.7906 16.2636 11.5755 16.4409 11.4331ZM17.6604 12.9525V15.238C17.6604 16.0638 18.3346 16.738 19.1604 16.738C19.9468 16.738 20.5953 16.1208 20.6496 15.3487C20.619 14.5555 20.3877 14.1096 20.1103 13.8299C19.8122 13.5293 19.3728 13.3309 18.7794 13.2006L18.7781 13.2003L17.6604 12.9525Z" fill="#DEDDF7"/>
<path d="M16.5667 13.3489L16.158 12.9401L11.2497 8.22175C10.2829 7.29225 9.82223 5.95441 10.0119 4.62672C10.2739 2.79246 11.7335 1.34864 13.5677 1.0866C14.8796 0.899188 16.2155 1.33856 17.1526 2.27553L22.9332 8.05545C23.0261 8.14835 23.1007 8.25795 23.1531 8.37845C23.5225 9.22845 22.6867 10.1038 21.8206 9.77415L21.5853 9.68455C22.2353 10.6569 21.0744 11.8152 20.0967 11.1731C20.6134 12.1354 19.564 13.1903 18.6082 12.6617L18.5954 12.7277C18.4861 13.2927 17.9915 13.7007 17.4161 13.7007C17.0975 13.7007 16.792 13.5742 16.5667 13.3489Z" fill="#3EB48B"/>
<path fill-rule="evenodd" clip-rule="evenodd" d="M9.44733 4.54604C9.74573 2.45785 11.405 0.819359 13.4872 0.521889C14.975 0.309359 16.4907 0.806929 17.5561 1.87214L23.3367 7.65204C23.4803 7.79554 23.5955 7.96484 23.6764 8.15104C24.1412 9.22054 23.3709 10.3161 22.3461 10.4106C22.2797 11.2087 21.5907 11.8762 20.7882 11.9276C20.664 12.7857 19.86 13.4737 18.9608 13.3677C18.654 13.9134 18.0706 14.2711 17.4163 14.2711C16.9464 14.2711 16.4958 14.0845 16.1636 13.7523L15.7588 13.3475L10.8546 8.63294C9.75543 7.57634 9.23173 6.0554 9.44733 4.54604ZM18.9445 12.1911C19.3511 12.3546 19.7958 11.9417 19.6242 11.5071L18.5771 10.46C18.3543 10.2373 18.3543 9.87614 18.5771 9.65334C18.7999 9.43064 19.1611 9.43064 19.3838 9.65334L20.4521 10.7216C20.8988 10.9657 21.3676 10.462 21.1353 10.0412L18.5771 7.48294C18.3543 7.26024 18.3543 6.89904 18.5771 6.67624C18.7999 6.45349 19.1611 6.45349 19.3838 6.67624L21.9025 9.19494L22.0236 9.24104C22.4179 9.39104 22.7982 8.99264 22.6301 8.60584C22.6063 8.55094 22.5723 8.50104 22.53 8.45874L16.7494 2.6789C15.9406 1.87016 14.7845 1.48901 13.6486 1.65129C12.0623 1.87789 10.8025 3.12706 10.5767 4.70738C10.413 5.85341 10.8106 7.00824 11.6452 7.81054L16.5575 12.5328L16.9703 12.9456C17.0885 13.0638 17.249 13.1303 17.4163 13.1303C17.6447 13.1303 17.8489 13.0078 17.9597 12.8198L17.0886 11.9486C16.8658 11.7258 16.8658 11.3647 17.0886 11.1419C17.3113 10.9191 17.6725 10.9191 17.8953 11.1419L18.9445 12.1911Z" fill="#DAF8EE"/>
<path d="M15.8849 4.58504L14.7578 5.26132C14.6775 5.30948 14.5912 5.3469 14.5012 5.37262C13.5788 5.63617 12.8025 4.64609 13.2784 3.81313L13.3714 3.65048C13.4535 3.50683 13.5657 3.38265 13.7003 3.28648L14.9734 2.37711C15.7438 1.82683 16.6669 1.53101 17.6137 1.53101H17.7202C18.4409 1.53101 19.1491 1.71909 19.7749 2.07667L20.033 2.22415C20.9499 2.74813 21.5827 3.65661 21.7564 4.69835L21.8338 5.16302C21.8526 5.27598 21.8508 5.39143 21.8283 5.50373C21.6803 6.24389 20.7671 6.52034 20.2333 5.98665L18.9917 4.74505C18.6383 4.39159 18.1589 4.19301 17.659 4.19301H17.3002C16.8016 4.19301 16.3124 4.32852 15.8849 4.58504Z" fill="#D82F2F"/>
<path fill-rule="evenodd" clip-rule="evenodd" d="M14.6419 1.9133C15.509 1.29391 16.548 0.960938 17.6137 0.960938H17.7202C18.5402 0.960938 19.346 1.17493 20.0579 1.58176L20.316 1.72924C21.3818 2.33824 22.1172 3.39414 22.319 4.60493L22.3965 5.0696C22.4267 5.25075 22.4237 5.43588 22.3877 5.61596C22.1503 6.80284 20.6859 7.24624 19.83 6.39036L18.5884 5.14877C18.3419 4.90228 18.0076 4.76381 17.659 4.76381H17.3002C16.905 4.76381 16.5173 4.87121 16.1784 5.07454L15.0513 5.75082C14.9282 5.82466 14.796 5.88203 14.658 5.92146C13.2437 6.32554 12.0534 4.80757 12.7832 3.53048L12.8761 3.36783C12.9991 3.15268 13.1671 2.96669 13.3688 2.82266L14.6419 1.9133ZM17.6137 2.1018C16.7858 2.1018 15.9787 2.36047 15.305 2.84165L14.0319 3.75102C13.9643 3.79932 13.9079 3.8617 13.8667 3.93386L13.7737 4.09651C13.5515 4.48535 13.9139 4.94753 14.3445 4.8245C14.3866 4.81249 14.4268 4.79502 14.4643 4.77254L15.5914 4.09626C16.1076 3.78655 16.6983 3.62295 17.3002 3.62295H17.659C18.3102 3.62295 18.9347 3.88162 19.3951 4.34206L20.6367 5.58365C20.8483 5.79523 21.2103 5.68563 21.269 5.39222C21.2779 5.3477 21.2786 5.30194 21.2711 5.25716L21.1937 4.79249C21.0483 3.91979 20.5181 3.15873 19.75 2.71978L19.4919 2.5723C18.9523 2.26398 18.3416 2.1018 17.7202 2.1018H17.6137Z" fill="#FFE0E0"/>
<path d="M9.73868 8.42656C9.29348 7.94906 9.31958 7.20116 9.79708 6.75586L10.4577 6.13982C10.9352 5.6946 11.6831 5.72072 12.1284 6.19816C12.5736 6.67556 12.5475 7.42356 12.07 7.86876L11.4094 8.48486C10.9319 8.93006 10.184 8.90396 9.73868 8.42656Z" fill="#D82F2F"/>
<path fill-rule="evenodd" clip-rule="evenodd" d="M9.32162 8.81634C8.66152 8.10854 8.70032 6.99954 9.40812 6.33949L10.0688 5.72343C10.7766 5.06335 11.8855 5.10207 12.5456 5.80992C13.2057 6.51774 13.167 7.62674 12.4591 8.28674L11.7985 8.90284C11.0906 9.56294 9.98172 9.52424 9.32162 8.81634ZM10.1862 7.17384C9.93912 7.40424 9.92562 7.79124 10.156 8.03824C10.3864 8.28534 10.7734 8.29884 11.0204 8.06844L11.6811 7.45244C11.9281 7.22204 11.9416 6.83504 11.7112 6.58794C11.4809 6.34095 11.0939 6.32743 10.8468 6.55784L10.1862 7.17384Z" fill="#FFE0E0"/>
<path d="M11.2599 9.94824C10.8147 9.47074 10.8408 8.72284 11.3182 8.27764L11.9789 7.66154C12.4563 7.21634 13.2043 7.24244 13.6495 7.71984C14.0947 8.19734 14.0686 8.94524 13.5912 9.39054L12.9305 10.0065C12.4531 10.4518 11.7051 10.4256 11.2599 9.94824Z" fill="#D82F2F"/>
<path fill-rule="evenodd" clip-rule="evenodd" d="M10.8426 10.3369C10.1825 9.62906 10.2213 8.52006 10.9291 7.86006L11.5898 7.24396C12.2976 6.58386 13.4065 6.62256 14.0666 7.33046C14.7267 8.03826 14.688 9.14726 13.9801 9.80726L13.3195 10.4234C12.6116 11.0835 11.5027 11.0448 10.8426 10.3369ZM11.7072 8.69436C11.4601 8.92476 11.4466 9.31176 11.677 9.55876C11.9073 9.80586 12.2944 9.81936 12.5414 9.58896L13.202 8.97296C13.4491 8.74256 13.4626 8.35556 13.2322 8.10856C13.0019 7.86146 12.6149 7.84796 12.3678 8.07836L11.7072 8.69436Z" fill="#FFE0E0"/>
<path d="M14.1032 12.9274C13.658 12.45 13.6841 11.702 14.1616 11.2568L14.8222 10.6407C15.2997 10.1955 16.0476 10.2216 16.4929 10.6991C16.9381 11.1765 16.912 11.9245 16.4345 12.3697L15.7739 12.9858C15.2964 13.431 14.5485 13.4049 14.1032 12.9274Z" fill="#D82F2F"/>
<path fill-rule="evenodd" clip-rule="evenodd" d="M13.6859 13.3175C13.0258 12.6097 13.0645 11.5008 13.7724 10.8407L14.433 10.2246C15.1409 9.56453 16.2498 9.60333 16.9099 10.3111C17.5699 11.0189 17.5312 12.1279 16.8234 12.788L16.1627 13.404C15.4549 14.0641 14.346 14.0254 13.6859 13.3175ZM14.5504 11.675C14.3034 11.9054 14.2899 12.2924 14.5202 12.5395C14.7506 12.7865 15.1376 12.8 15.3847 12.5696L16.0453 11.9536C16.2923 11.7232 16.3059 11.3362 16.0755 11.0892C15.8451 10.8421 15.4581 10.8286 15.2111 11.059L14.5504 11.675Z" fill="#FFE0E0"/>
<path d="M12.781 11.4688C12.3357 10.9914 12.3619 10.2434 12.8393 9.79815L13.5 9.18205C13.9774 8.73685 14.7254 8.76295 15.1706 9.24035C15.6158 9.71785 15.5897 10.4659 15.1123 10.9111L14.4516 11.5271C13.9742 11.9724 13.2262 11.9462 12.781 11.4688Z" fill="#D82F2F"/>
<path fill-rule="evenodd" clip-rule="evenodd" d="M12.3639 11.8585C11.7038 11.1507 11.7425 10.0418 12.4503 9.38175L13.111 8.76565C13.8188 8.10555 14.9278 8.14435 15.5878 8.85215C16.2479 9.56005 16.2092 10.6689 15.5014 11.329L14.8407 11.945C14.1329 12.6051 13.0239 12.5664 12.3639 11.8585ZM13.2284 10.2161C12.9814 10.4464 12.9679 10.8334 13.1982 11.0805C13.4286 11.3275 13.8156 11.341 14.0626 11.1107L14.7233 10.4946C14.9703 10.2642 14.9838 9.87725 14.7535 9.63025C14.5231 9.38315 14.1361 9.36965 13.8891 9.60005L13.2284 10.2161Z" fill="#FFE0E0"/>
</svg>
