<svg width="25" height="24" viewBox="0 0 25 24" fill="none" xmlns="http://www.w3.org/2000/svg">
<path d="M5.04785 22.4503L5.09771 10.4203C5.09771 9.81035 5.38691 9.23035 5.86558 8.85035L12.8462 3.40035C13.5642 2.84035 14.5714 2.84035 15.2994 3.40035L22.28 8.84035C22.7687 9.22035 23.0479 9.80035 23.0479 10.4203V22.4503" fill="#FF9500"/>
<path d="M21.0476 8.48035L21.0179 4.98035H16.6179" fill="#FFF3E2"/>
<path fill-rule="evenodd" clip-rule="evenodd" d="M4.099 10.8651L4.04882 22.2303C3.63461 22.2303 3.29785 22.5661 3.29785 22.9803C3.29785 23.3945 3.63364 23.7303 4.04785 23.7303H24.0479C24.4621 23.7303 24.7979 23.3945 24.7979 22.9803C24.7979 22.5661 24.4621 22.2303 24.0479 22.2303V10.8651C24.0479 10.0561 23.6387 9.27614 22.9635 8.77534L21.7932 7.91914L21.7682 4.97398C21.7647 4.56226 21.4299 4.23034 21.0182 4.23034H16.7508L15.8024 3.53649C14.7794 2.79496 13.3574 2.79496 12.3446 3.53649L5.1834 8.78504C4.49798 9.28574 4.099 10.0465 4.099 10.8651ZM18.8012 5.73034L20.2837 6.81492L20.2745 5.73034H18.8012ZM22.5134 10.8747V22.2303H5.58335L5.63353 10.8747C5.63353 10.5088 5.81767 10.1525 6.12458 9.93104L13.2858 4.68249C13.7563 4.34543 14.4008 4.34543 14.8612 4.68249L22.0223 9.92134C22.3292 10.1524 22.5134 10.5088 22.5134 10.8747Z" fill="#FFF3E2"/>
<path d="M18.6161 13.9803H16.9797C16.1943 13.9803 15.5479 13.3483 15.5479 12.5803V11.3803C15.5479 10.6123 16.1943 9.98035 16.9797 9.98035H18.6161C19.4015 9.98035 20.0479 10.6123 20.0479 11.3803V12.5803C20.0479 13.3483 19.4015 13.9803 18.6161 13.9803ZM16.9797 11.1803C16.8652 11.1803 16.7752 11.2683 16.7752 11.3803V12.5803C16.7752 12.6923 16.8652 12.7803 16.9797 12.7803H18.6161C18.7306 12.7803 18.8206 12.6923 18.8206 12.5803V11.3803C18.8206 11.2683 18.7306 11.1803 18.6161 11.1803H16.9797Z" fill="#FFF3E2"/>
<path d="M11.1161 13.9803H9.47965C8.69425 13.9803 8.04785 13.3483 8.04785 12.5803V11.3803C8.04785 10.6123 8.69425 9.98035 9.47965 9.98035H11.1161C11.9015 9.98035 12.5479 10.6123 12.5479 11.3803V12.5803C12.5479 13.3483 11.9015 13.9803 11.1161 13.9803ZM9.47965 11.1803C9.36515 11.1803 9.27515 11.2683 9.27515 11.3803V12.5803C9.27515 12.6923 9.36515 12.7803 9.47965 12.7803H11.1161C11.2306 12.7803 11.3206 12.6923 11.3206 12.5803V11.3803C11.3206 11.2683 11.2306 11.1803 11.1161 11.1803H9.47965Z" fill="#FFF3E2"/>
<path d="M16.7979 23.4803H11.7979C11.3879 23.4803 11.0479 23.1403 11.0479 22.7303V19.2303C11.0479 17.9903 12.0579 16.9803 13.2979 16.9803H15.2979C16.5379 16.9803 17.5479 17.9903 17.5479 19.2303V22.7303C17.5479 23.1403 17.2079 23.4803 16.7979 23.4803ZM12.5479 21.9803H16.0479V19.2303C16.0479 18.8203 15.7079 18.4803 15.2979 18.4803H13.2979C12.8879 18.4803 12.5479 18.8203 12.5479 19.2303V21.9803Z" fill="#FFF3E2"/>
<path d="M11.1632 6.98026C11.1632 9.52935 9.09685 11.5956 6.54776 11.5956C3.99864 11.5956 1.93237 9.52935 1.93237 6.98026C1.93237 4.43114 3.99864 2.36487 6.54776 2.36487C6.66847 2.36487 6.79627 2.37196 6.91698 2.37906C9.16785 2.55658 10.9715 4.36015 11.149 6.61103C11.1561 6.73174 11.1632 6.85955 11.1632 6.98026Z" fill="#3EB48B"/>
<path fill-rule="evenodd" clip-rule="evenodd" d="M6.99838 0.996927L7.02593 0.998827C9.95565 1.22988 12.2984 3.57258 12.5294 6.50227L12.5313 6.52982C12.5382 6.6472 12.5479 6.81339 12.5479 6.98035C12.5479 10.2941 9.86165 12.9803 6.54785 12.9803C3.23404 12.9803 0.547852 10.2941 0.547852 6.98035C0.547852 3.66654 3.23404 0.980347 6.54785 0.980347C6.71481 0.980347 6.881 0.990027 6.99838 0.996927ZM6.91707 2.37916C9.16795 2.55667 10.9716 4.36024 11.1491 6.61113C11.1562 6.73184 11.1633 6.85964 11.1633 6.98035C11.1633 9.52945 9.09695 11.5957 6.54785 11.5957C3.99874 11.5957 1.93247 9.52945 1.93247 6.98035C1.93247 4.43124 3.99874 2.36497 6.54785 2.36497C6.66856 2.36497 6.79636 2.37206 6.91707 2.37916Z" fill="#FFF3E2"/>
<path fill-rule="evenodd" clip-rule="evenodd" d="M6.54793 4.67273C6.68891 4.67273 6.8186 4.74987 6.8859 4.87376L7.50848 6.01987L8.65455 6.64246C8.77845 6.70975 8.85565 6.83944 8.85565 6.98045C8.85565 7.12145 8.77845 7.25105 8.65455 7.31835L7.50848 7.94095L6.8859 9.08705C6.8186 9.21095 6.68891 9.28815 6.54793 9.28815C6.40694 9.28815 6.27725 9.21095 6.20996 9.08705L5.58737 7.94095L4.44126 7.31835C4.31737 7.25105 4.24023 7.12145 4.24023 6.98045C4.24023 6.83944 4.31737 6.70975 4.44126 6.64246L5.58737 6.01987L6.20996 4.87376C6.27725 4.74987 6.40694 4.67273 6.54793 4.67273ZM6.54793 5.8631L6.20897 6.48709C6.1735 6.55238 6.11988 6.606 6.05459 6.64147L5.4306 6.98045L6.05459 7.31935C6.11988 7.35485 6.1735 7.40845 6.20897 7.47375L6.54793 8.09775L6.88688 7.47375C6.92235 7.40845 6.97597 7.35485 7.04126 7.31935L7.66525 6.98045L7.04126 6.64147C6.97597 6.606 6.92235 6.55238 6.88688 6.48709L6.54793 5.8631Z" fill="#FFF3E2"/>
</svg>
