<svg width="23" height="22" viewBox="0 0 23 22" fill="none" xmlns="http://www.w3.org/2000/svg">
<path d="M2.30981 20.4503L2.35967 8.42035C2.35967 7.81035 2.64887 7.23035 3.12754 6.85035L10.1081 1.40035C10.8261 0.840347 11.8333 0.840347 12.5613 1.40035L19.5419 6.84035C20.0306 7.22035 20.3098 7.80035 20.3098 8.42035V20.4503" fill="#5856D6"/>
<path d="M18.3096 6.48035L18.2799 2.98035H13.8799" fill="#DEDDF7"/>
<path fill-rule="evenodd" clip-rule="evenodd" d="M1.36096 8.86514L1.31078 20.2303C0.896574 20.2303 0.559814 20.5661 0.559814 20.9803C0.559814 21.3945 0.895604 21.7303 1.30981 21.7303H21.3098C21.724 21.7303 22.0598 21.3945 22.0598 20.9803C22.0598 20.5661 21.724 20.2303 21.3098 20.2303V8.86514C21.3098 8.05614 20.9006 7.27614 20.2254 6.77534L19.0551 5.91914L19.0301 2.97398C19.0266 2.56226 18.6918 2.23034 18.2801 2.23034H14.0127L13.0643 1.53649C12.0413 0.794964 10.6193 0.794964 9.60651 1.53649L2.44536 6.78504C1.75994 7.28574 1.36096 8.04654 1.36096 8.86514ZM16.0631 3.73034L17.5456 4.81492L17.5364 3.73034H16.0631ZM19.7753 8.87474V20.2303H2.84531L2.89549 8.87474C2.89549 8.50884 3.07963 8.15254 3.38654 7.93104L10.5477 2.68249C11.0182 2.34543 11.6627 2.34543 12.1231 2.68249L19.2842 7.92134C19.5911 8.15244 19.7753 8.50884 19.7753 8.87474Z" fill="#DEDDF7"/>
<path d="M8.82741 16.552L7.53931 16.2585C7.42221 16.234 7.32851 16.1707 7.25831 16.0686C7.18801 15.9669 7.16071 15.8548 7.17631 15.7325L7.30511 14.3503L6.42691 13.2984C6.34881 13.2087 6.30981 13.1027 6.30981 12.9804C6.30981 12.8581 6.34881 12.7521 6.42691 12.6624L7.30511 11.6105L7.17631 10.2283C7.16071 10.106 7.18801 9.99387 7.25831 9.89217C7.32851 9.79007 7.42221 9.72677 7.53931 9.70227L8.82741 9.40877L9.50651 8.21007C9.56901 8.10407 9.65481 8.03477 9.76411 8.00207C9.87341 7.96947 9.98271 7.97357 10.092 8.01437L11.3098 8.55256L12.5276 8.01437C12.6369 7.97357 12.7462 7.96947 12.8555 8.00207C12.9648 8.03477 13.0506 8.10407 13.1131 8.21007L13.7922 9.40877L15.0803 9.70227C15.1974 9.72677 15.2911 9.79007 15.3613 9.89217C15.4316 9.99387 15.4589 10.106 15.4433 10.2283L15.3145 11.6105L16.1927 12.6624C16.2708 12.7521 16.3098 12.8581 16.3098 12.9804C16.3098 13.1027 16.2708 13.2087 16.1927 13.2984L15.3145 14.3503L15.4433 15.7325C15.4589 15.8548 15.4316 15.9669 15.3613 16.0686C15.2911 16.1707 15.1974 16.234 15.0803 16.2585L13.7922 16.552L13.1131 17.7507C13.0506 17.8567 12.9648 17.926 12.8555 17.9587C12.7462 17.9913 12.6369 17.9872 12.5276 17.9464L11.3098 17.4082L10.092 17.9464C9.98271 17.9872 9.87341 17.9913 9.76411 17.9587C9.65481 17.926 9.56901 17.8567 9.50651 17.7507L8.82741 16.552ZM10.4901 14.3748C10.576 14.4645 10.6853 14.5093 10.818 14.5093C10.9507 14.5093 11.06 14.4645 11.1459 14.3748L13.1365 12.2954C13.2302 12.1976 13.277 12.0813 13.277 11.9466C13.277 11.8122 13.2302 11.6961 13.1365 11.5982C13.0428 11.5004 12.9317 11.4515 12.803 11.4515C12.674 11.4515 12.5627 11.5004 12.4691 11.5982L10.818 13.3229L10.1388 12.6257C10.0452 12.536 9.93401 12.4931 9.80541 12.497C9.67641 12.5012 9.56901 12.5482 9.48311 12.6379C9.39721 12.7276 9.35431 12.8418 9.35431 12.9804C9.35431 13.119 9.39721 13.2332 9.48311 13.3229L10.4901 14.3748Z" fill="#91EACB"/>
</svg>
