<svg width="25" height="23" viewBox="0 0 25 23" fill="none" xmlns="http://www.w3.org/2000/svg">
<path d="M13.6909 22.3553C19.7661 22.3553 24.6909 17.4305 24.6909 11.3553C24.6909 5.28021 19.7661 0.355347 13.6909 0.355347C7.61579 0.355347 2.69092 5.28021 2.69092 11.3553C2.69092 17.4305 7.61579 22.3553 13.6909 22.3553Z" fill="#006EE5"/>
<path d="M24.6909 11.3553C24.6909 17.4304 19.766 22.3553 13.6909 22.3553C7.61579 22.3553 2.69092 17.4304 2.69092 11.3553C2.69092 5.28022 7.61579 0.355347 13.6909 0.355347C19.766 0.355347 24.6909 5.28022 24.6909 11.3553ZM4.34092 11.3553C4.34092 16.5192 8.52702 20.7053 13.6909 20.7053C18.8548 20.7053 23.0409 16.5192 23.0409 11.3553C23.0409 6.19145 18.8548 2.00535 13.6909 2.00535C8.52702 2.00535 4.34092 6.19145 4.34092 11.3553Z" fill="#CCE4FF"/>
<path d="M21.6909 11.3553C21.6909 10.3047 21.484 9.26445 21.0819 8.29385C20.6799 7.32325 20.0906 6.44135 19.3478 5.69845C18.6049 4.95563 17.723 4.36635 16.7524 3.96431C15.7818 3.56228 14.7415 3.35535 13.6909 3.35535V11.3553H21.6909Z" fill="#48DCA8"/>
<path d="M4.97976 16.1805C4.66891 16.1805 4.41691 15.9285 4.41691 15.6177V15.538C4.41691 15.2019 4.15708 14.9265 3.82575 14.8704C3.54451 14.8228 3.27252 14.7567 3.00978 14.6721C2.72416 14.5736 2.46278 14.4509 2.22563 14.3039C2.00601 14.1678 1.93582 13.8898 2.02889 13.6488C2.17108 13.2805 2.62693 13.1511 2.98209 13.3234C3.13974 13.3999 3.30282 13.4667 3.47132 13.5239C3.89158 13.6665 4.35312 13.7378 4.85594 13.7378C5.40378 13.7378 5.80528 13.6402 6.06044 13.4451C6.3156 13.25 6.44318 13.006 6.44318 12.7134C6.44318 12.4507 6.35688 12.2406 6.18427 12.083C6.01166 11.9254 5.70397 11.7978 5.26119 11.7002L4.06794 11.4413C3.39252 11.2912 2.8822 11.0436 2.53699 10.6984C2.19928 10.3456 2.03042 9.88025 2.03042 9.30245C2.03042 8.67205 2.24431 8.14295 2.67207 7.71515C2.98383 7.40345 3.37066 7.18025 3.83256 7.04555C4.15979 6.95015 4.41691 6.67125 4.41691 6.33035V6.21805C4.41691 5.90715 4.66891 5.65515 4.97976 5.65515C5.29062 5.65515 5.54262 5.90715 5.54262 6.21805V6.31575C5.54262 6.65615 5.80337 6.93495 6.13347 7.01795C6.31818 7.06435 6.50022 7.12415 6.67958 7.19735C6.9253 7.29765 7.14589 7.42145 7.34135 7.56865C7.51652 7.70055 7.56167 7.93725 7.48096 8.14115C7.33888 8.50005 6.87493 8.60435 6.52992 8.43115C6.08735 8.20905 5.57814 8.09795 5.00228 8.09795C4.53699 8.09795 4.16175 8.20675 3.87658 8.42435C3.5989 8.63455 3.46007 8.91215 3.46007 9.25745C3.46007 9.51255 3.54637 9.71895 3.71898 9.87655C3.89158 10.0342 4.16926 10.1543 4.552 10.2368L5.74524 10.4957C6.46569 10.6533 6.99853 10.9047 7.34374 11.25C7.69642 11.5877 7.87282 12.0379 7.87282 12.6008C7.87282 13.2312 7.65519 13.749 7.21991 14.1543C6.91743 14.4355 6.54929 14.6436 6.11547 14.7785C5.79263 14.8789 5.54262 15.1583 5.54262 15.4964V15.6177C5.54262 15.9285 5.29062 16.1805 4.97976 16.1805Z" fill="#006EE5"/>
<path fill-rule="evenodd" clip-rule="evenodd" d="M6.116 10.5901C5.99847 10.5556 5.87486 10.5242 5.74518 10.4958L4.55193 10.2369C4.47982 10.2214 4.41145 10.2045 4.3468 10.1863C4.34473 10.1857 4.34266 10.1851 4.3406 10.1845C4.27274 10.1652 4.20902 10.1445 4.14944 10.1222C3.96721 10.0542 3.8237 9.97245 3.71891 9.87675C3.5463 9.71915 3.46 9.51275 3.46 9.25765C3.46 8.91235 3.59883 8.63475 3.87651 8.42455C3.87908 8.42265 3.88165 8.42065 3.88423 8.41875C3.97476 8.35065 4.07425 8.29345 4.18272 8.24705C4.30988 8.19265 4.44938 8.15315 4.60122 8.12855C4.72649 8.10825 4.86015 8.09815 5.00221 8.09815C5.13136 8.09815 5.25716 8.10375 5.37961 8.11485C5.53862 8.12935 5.69198 8.15335 5.83968 8.18665C5.97416 8.21705 6.10394 8.25525 6.22904 8.30125C6.26004 8.31255 6.29074 8.32445 6.32116 8.33685C6.3923 8.36575 6.46186 8.39725 6.52985 8.43135C6.57005 8.45155 6.61186 8.46795 6.65458 8.48065C6.97859 8.57675 7.35536 8.45845 7.48089 8.14135C7.5616 7.93745 7.51645 7.70075 7.34128 7.56885C7.25176 7.50135 7.15697 7.43885 7.0569 7.38135C6.96035 7.32575 6.8589 7.27475 6.75254 7.22835C6.72845 7.21785 6.7041 7.20765 6.67951 7.19755C6.50015 7.12435 6.31812 7.06455 6.1334 7.01815C6.01484 6.98835 5.90523 6.93325 5.81342 6.85915C5.76288 6.81835 5.71773 6.77175 5.67947 6.72045C5.65206 6.68375 5.62818 6.64455 5.60838 6.60335C5.56824 6.51975 5.54484 6.42775 5.54271 6.33055C5.5426 6.32575 5.54255 6.32085 5.54255 6.31595V6.21825C5.54255 5.90735 5.29055 5.65535 4.9797 5.65535C4.66884 5.65535 4.41685 5.90735 4.41685 6.21825V6.33055C4.41685 6.43025 4.39486 6.52455 4.35557 6.61065C4.33621 6.65305 4.31263 6.69345 4.28541 6.73145C4.23946 6.79555 4.18311 6.85295 4.11907 6.90165C4.03482 6.96585 3.93725 7.01525 3.83249 7.04575C3.59662 7.11455 3.38033 7.20635 3.18361 7.32135C2.9951 7.43145 2.82456 7.56285 2.672 7.71535C2.24424 8.14315 2.03035 8.67225 2.03035 9.30265C2.03035 9.88045 2.19921 10.3457 2.53692 10.6985C2.82499 10.9865 3.22803 11.2067 3.74603 11.3589C3.84879 11.3891 3.95607 11.4166 4.06788 11.4414L5.26112 11.7003C5.33465 11.7165 5.40444 11.7336 5.47052 11.7514L5.47261 11.752C5.56053 11.7758 5.64183 11.8011 5.71652 11.8278C5.92285 11.9017 6.07874 11.9868 6.1842 12.0831C6.35681 12.2407 6.44311 12.4508 6.44311 12.7135C6.44311 12.9353 6.36981 13.1291 6.22322 13.2949C6.17641 13.3479 6.12213 13.3979 6.06037 13.4452C5.97421 13.5111 5.87136 13.5658 5.75182 13.6095C5.62844 13.6545 5.48729 13.6877 5.32835 13.709C5.18527 13.7282 5.02777 13.7379 4.85587 13.7379C4.73633 13.7379 4.61912 13.7338 4.50425 13.7258C4.34128 13.7143 4.18301 13.6948 4.02943 13.6671C3.83592 13.6323 3.64986 13.5846 3.47125 13.524C3.45165 13.5173 3.43212 13.5105 3.41267 13.5036C3.4047 13.5008 3.39674 13.4979 3.38879 13.4951C3.29971 13.4628 3.21218 13.4278 3.1262 13.3901C3.07765 13.3688 3.02959 13.3466 2.98203 13.3235C2.94295 13.3045 2.90265 13.2892 2.86169 13.2775C2.53035 13.1826 2.15537 13.3211 2.02882 13.6489C1.93575 13.8899 2.00594 14.1679 2.22557 14.304C2.29667 14.3481 2.36996 14.39 2.44542 14.4297C2.52423 14.4711 2.60541 14.5102 2.68897 14.5469C2.79225 14.5923 2.89917 14.6341 3.00972 14.6722C3.03132 14.6791 3.05299 14.686 3.07473 14.6927C3.31725 14.7675 3.56757 14.8268 3.82568 14.8705C3.93726 14.8894 4.04072 14.9332 4.12888 14.9957C4.18409 15.0349 4.2333 15.0815 4.27474 15.1339C4.30156 15.1678 4.32513 15.2042 4.34497 15.2427C4.38486 15.3201 4.40967 15.4057 4.41551 15.4965C4.4164 15.5102 4.41685 15.5241 4.41685 15.5381V15.6178C4.41685 15.9286 4.66884 16.1806 4.9797 16.1806C5.29055 16.1806 5.54255 15.9286 5.54255 15.6178V15.4965C5.54255 15.3987 5.56345 15.3059 5.60097 15.2209C5.61955 15.1788 5.6422 15.1386 5.6684 15.1006C5.70898 15.0419 5.75807 14.9887 5.81376 14.9421C5.90069 14.8695 6.00368 14.8133 6.1154 14.7786C6.37805 14.6969 6.61663 14.5884 6.83114 14.4531C6.92511 14.3938 7.01446 14.3294 7.09919 14.2598C7.14051 14.2259 7.18073 14.1907 7.21985 14.1544C7.65512 13.7491 7.87272 13.2313 7.87272 12.6009C7.87272 12.038 7.69642 11.5878 7.34367 11.25C7.0606 10.967 6.65137 10.747 6.116 10.5901ZM8.25292 10.3208C8.89422 10.9405 9.17272 11.747 9.17272 12.6009C9.17272 13.5679 8.82242 14.4386 8.10572 15.1058C7.72942 15.4557 7.29531 15.721 6.82007 15.908C6.68067 16.799 5.90978 17.4806 4.9797 17.4806C4.10482 17.4806 3.37081 16.8775 3.17073 16.0644C2.98152 16.0203 2.79497 15.9688 2.61123 15.9096L2.59853 15.9055L2.58593 15.9012C2.21646 15.7738 1.86652 15.6109 1.54079 15.409C0.705771 14.8916 0.535441 13.9074 0.816091 13.1806C1.06497 12.5361 1.56288 12.1659 2.10849 12.0229C1.93351 11.9036 1.76908 11.7691 1.61768 11.6177L1.60769 11.6077L1.59792 11.5975C0.986831 10.9592 0.730351 10.1498 0.730351 9.30265C0.730351 8.34365 1.07 7.47895 1.75277 6.79615C2.15145 6.39745 2.62148 6.10355 3.14281 5.90645C3.29114 5.02605 4.05709 4.35535 4.9797 4.35535C5.88628 4.35535 6.64161 5.00296 6.8083 5.86075C6.93043 5.90075 7.05127 5.94515 7.17078 5.99395C7.51145 6.13305 7.83132 6.31045 8.12342 6.53035C8.84962 7.07735 8.94452 7.97585 8.68962 8.61975C8.43952 9.25175 7.96412 9.59565 7.44991 9.73305C7.74452 9.89235 8.01572 10.0858 8.25292 10.3208Z" fill="#CCE4FF"/>
</svg>
